<?xml version="1.0" standalone="no"?>
 <!DOCTYPE svg PUBLIC "-//W3C//DTD SVG 1.1//EN" 
 "http://www.w3.org/Graphics/SVG/1.1/DTD/svg11.dtd"> 
<svg xmlns="http://www.w3.org/2000/svg" version="1.1" 
    width="29.7002cm" height="21.0007cm" viewBox="0 0 116930 82680 ">
<title>SVG Picture created as Alarm-clock-v2-F.Cu.svg date 2018/03/01 17:54:45 </title>
  <desc>Picture generated by PCBNEW </desc>
<g style="fill:#000000; fill-opacity:1;stroke:#000000; stroke-opacity:1;
stroke-linecap:round; stroke-linejoin:round; "
 transform="translate(0 0) scale(1 1)">
</g>
<g style="fill:#000000; fill-opacity:0.0; 
stroke:#000000; stroke-width:-0.000393701; stroke-opacity:1; 
stroke-linecap:round; stroke-linejoin:round;">
</g>
<g style="fill:#000000; fill-opacity:0.0; 
stroke:#000000; stroke-width:39.3701; stroke-opacity:1; 
stroke-linecap:round; stroke-linejoin:round;">
</g>
<g style="fill:#000000; fill-opacity:0.0; 
stroke:#000000; stroke-width:59.0551; stroke-opacity:1; 
stroke-linecap:round; stroke-linejoin:round;">
<rect x="69685.9" y="65357.2" width="42519.7" height="12598.4" rx="0" />
</g>
<g style="fill:#000000; fill-opacity:0.0; 
stroke:#000000; stroke-width:39.3701; stroke-opacity:1; 
stroke-linecap:round; stroke-linejoin:round;">
</g>
<g style="fill:#000000; fill-opacity:0.0; 
stroke:#000000; stroke-width:59.0551; stroke-opacity:1; 
stroke-linecap:round; stroke-linejoin:round;">
<rect x="3937.01" y="3937.01" width="109056" height="74806" rx="0" />
</g>
<g style="fill:#000000; fill-opacity:0.0; 
stroke:#000000; stroke-width:39.3701; stroke-opacity:1; 
stroke-linecap:round; stroke-linejoin:round;">
</g>
<g style="fill:#000000; fill-opacity:0.0; 
stroke:#000000; stroke-width:59.0551; stroke-opacity:1; 
stroke-linecap:round; stroke-linejoin:round;">
<rect x="4724.41" y="4724.41" width="107481" height="73231.2" rx="0" />
</g>
<g style="fill:#000000; fill-opacity:0.0; 
stroke:#000000; stroke-width:39.3701; stroke-opacity:1; 
stroke-linecap:round; stroke-linejoin:round;">
</g>
<g style="fill:#000000; fill-opacity:0.0; 
stroke:#000000; stroke-width:59.0551; stroke-opacity:1; 
stroke-linecap:round; stroke-linejoin:round;">
<path d="M23622 4724
L23622 3937
" />
</g>
<g style="fill:#000000; fill-opacity:0.0; 
stroke:#000000; stroke-width:39.3701; stroke-opacity:1; 
stroke-linecap:round; stroke-linejoin:round;">
</g>
<g style="fill:#000000; fill-opacity:0.0; 
stroke:#000000; stroke-width:59.0551; stroke-opacity:1; 
stroke-linecap:round; stroke-linejoin:round;">
<path d="M43307 4724
L43307 3937
" />
</g>
<g style="fill:#000000; fill-opacity:0.0; 
stroke:#000000; stroke-width:39.3701; stroke-opacity:1; 
stroke-linecap:round; stroke-linejoin:round;">
</g>
<g style="fill:#000000; fill-opacity:0.0; 
stroke:#000000; stroke-width:59.0551; stroke-opacity:1; 
stroke-linecap:round; stroke-linejoin:round;">
<path d="M62992 4724
L62992 3937
" />
</g>
<g style="fill:#000000; fill-opacity:0.0; 
stroke:#000000; stroke-width:39.3701; stroke-opacity:1; 
stroke-linecap:round; stroke-linejoin:round;">
</g>
<g style="fill:#000000; fill-opacity:0.0; 
stroke:#000000; stroke-width:59.0551; stroke-opacity:1; 
stroke-linecap:round; stroke-linejoin:round;">
<path d="M82677 4724
L82677 3937
" />
</g>
<g style="fill:#000000; fill-opacity:0.0; 
stroke:#000000; stroke-width:39.3701; stroke-opacity:1; 
stroke-linecap:round; stroke-linejoin:round;">
</g>
<g style="fill:#000000; fill-opacity:0.0; 
stroke:#000000; stroke-width:59.0551; stroke-opacity:1; 
stroke-linecap:round; stroke-linejoin:round;">
<path d="M102362 4724
L102362 3937
" />
</g>
<g style="fill:#000000; fill-opacity:0.0; 
stroke:#000000; stroke-width:39.3701; stroke-opacity:1; 
stroke-linecap:round; stroke-linejoin:round;">
</g>
<g style="fill:#000000; fill-opacity:0.0; 
stroke:#000000; stroke-width:59.0551; stroke-opacity:1; 
stroke-linecap:round; stroke-linejoin:round;">
<path d="M14169 4562
L13877 4562
" />
<path d="M14023 4562
L14023 4050
L13974 4123
L13925 4172
L13877 4196
" />
</g>
<g style="fill:#000000; fill-opacity:0.0; 
stroke:#000000; stroke-width:39.3701; stroke-opacity:1; 
stroke-linecap:round; stroke-linejoin:round;">
</g>
<g style="fill:#000000; fill-opacity:0.0; 
stroke:#000000; stroke-width:59.0551; stroke-opacity:1; 
stroke-linecap:round; stroke-linejoin:round;">
<path d="M33562 4099
L33586 4074
L33635 4050
L33757 4050
L33805 4074
L33830 4099
L33854 4147
L33854 4196
L33830 4269
L33537 4562
L33854 4562
" />
</g>
<g style="fill:#000000; fill-opacity:0.0; 
stroke:#000000; stroke-width:39.3701; stroke-opacity:1; 
stroke-linecap:round; stroke-linejoin:round;">
</g>
<g style="fill:#000000; fill-opacity:0.0; 
stroke:#000000; stroke-width:59.0551; stroke-opacity:1; 
stroke-linecap:round; stroke-linejoin:round;">
<path d="M53222 4050
L53539 4050
L53368 4245
L53442 4245
L53490 4269
L53515 4294
L53539 4342
L53539 4464
L53515 4513
L53490 4537
L53442 4562
L53295 4562
L53247 4537
L53222 4513
" />
</g>
<g style="fill:#000000; fill-opacity:0.0; 
stroke:#000000; stroke-width:39.3701; stroke-opacity:1; 
stroke-linecap:round; stroke-linejoin:round;">
</g>
<g style="fill:#000000; fill-opacity:0.0; 
stroke:#000000; stroke-width:59.0551; stroke-opacity:1; 
stroke-linecap:round; stroke-linejoin:round;">
<path d="M73175 4221
L73175 4562
" />
<path d="M73053 4026
L72932 4391
L73248 4391
" />
</g>
<g style="fill:#000000; fill-opacity:0.0; 
stroke:#000000; stroke-width:39.3701; stroke-opacity:1; 
stroke-linecap:round; stroke-linejoin:round;">
</g>
<g style="fill:#000000; fill-opacity:0.0; 
stroke:#000000; stroke-width:59.0551; stroke-opacity:1; 
stroke-linecap:round; stroke-linejoin:round;">
<path d="M92885 4050
L92641 4050
L92617 4294
L92641 4269
L92690 4245
L92812 4245
L92860 4269
L92885 4294
L92909 4342
L92909 4464
L92885 4513
L92860 4537
L92812 4562
L92690 4562
L92641 4537
L92617 4513
" />
</g>
<g style="fill:#000000; fill-opacity:0.0; 
stroke:#000000; stroke-width:39.3701; stroke-opacity:1; 
stroke-linecap:round; stroke-linejoin:round;">
</g>
<g style="fill:#000000; fill-opacity:0.0; 
stroke:#000000; stroke-width:59.0551; stroke-opacity:1; 
stroke-linecap:round; stroke-linejoin:round;">
<path d="M112545 4050
L112448 4050
L112399 4074
L112375 4099
L112326 4172
L112302 4269
L112302 4464
L112326 4513
L112350 4537
L112399 4562
L112497 4562
L112545 4537
L112570 4513
L112594 4464
L112594 4342
L112570 4294
L112545 4269
L112497 4245
L112399 4245
L112350 4269
L112326 4294
L112302 4342
" />
</g>
<g style="fill:#000000; fill-opacity:0.0; 
stroke:#000000; stroke-width:39.3701; stroke-opacity:1; 
stroke-linecap:round; stroke-linejoin:round;">
</g>
<g style="fill:#000000; fill-opacity:0.0; 
stroke:#000000; stroke-width:59.0551; stroke-opacity:1; 
stroke-linecap:round; stroke-linejoin:round;">
<path d="M23622 77955
L23622 78742
" />
</g>
<g style="fill:#000000; fill-opacity:0.0; 
stroke:#000000; stroke-width:39.3701; stroke-opacity:1; 
stroke-linecap:round; stroke-linejoin:round;">
</g>
<g style="fill:#000000; fill-opacity:0.0; 
stroke:#000000; stroke-width:59.0551; stroke-opacity:1; 
stroke-linecap:round; stroke-linejoin:round;">
<path d="M43307 77955
L43307 78742
" />
</g>
<g style="fill:#000000; fill-opacity:0.0; 
stroke:#000000; stroke-width:39.3701; stroke-opacity:1; 
stroke-linecap:round; stroke-linejoin:round;">
</g>
<g style="fill:#000000; fill-opacity:0.0; 
stroke:#000000; stroke-width:59.0551; stroke-opacity:1; 
stroke-linecap:round; stroke-linejoin:round;">
<path d="M62992 77955
L62992 78742
" />
</g>
<g style="fill:#000000; fill-opacity:0.0; 
stroke:#000000; stroke-width:39.3701; stroke-opacity:1; 
stroke-linecap:round; stroke-linejoin:round;">
</g>
<g style="fill:#000000; fill-opacity:0.0; 
stroke:#000000; stroke-width:59.0551; stroke-opacity:1; 
stroke-linecap:round; stroke-linejoin:round;">
<path d="M82677 77955
L82677 78742
" />
</g>
<g style="fill:#000000; fill-opacity:0.0; 
stroke:#000000; stroke-width:39.3701; stroke-opacity:1; 
stroke-linecap:round; stroke-linejoin:round;">
</g>
<g style="fill:#000000; fill-opacity:0.0; 
stroke:#000000; stroke-width:59.0551; stroke-opacity:1; 
stroke-linecap:round; stroke-linejoin:round;">
<path d="M102362 77955
L102362 78742
" />
</g>
<g style="fill:#000000; fill-opacity:0.0; 
stroke:#000000; stroke-width:39.3701; stroke-opacity:1; 
stroke-linecap:round; stroke-linejoin:round;">
</g>
<g style="fill:#000000; fill-opacity:0.0; 
stroke:#000000; stroke-width:59.0551; stroke-opacity:1; 
stroke-linecap:round; stroke-linejoin:round;">
<path d="M14169 78580
L13877 78580
" />
<path d="M14023 78580
L14023 78069
L13974 78142
L13925 78190
L13877 78215
" />
</g>
<g style="fill:#000000; fill-opacity:0.0; 
stroke:#000000; stroke-width:39.3701; stroke-opacity:1; 
stroke-linecap:round; stroke-linejoin:round;">
</g>
<g style="fill:#000000; fill-opacity:0.0; 
stroke:#000000; stroke-width:59.0551; stroke-opacity:1; 
stroke-linecap:round; stroke-linejoin:round;">
<path d="M33562 78117
L33586 78093
L33635 78069
L33757 78069
L33805 78093
L33830 78117
L33854 78166
L33854 78215
L33830 78288
L33537 78580
L33854 78580
" />
</g>
<g style="fill:#000000; fill-opacity:0.0; 
stroke:#000000; stroke-width:39.3701; stroke-opacity:1; 
stroke-linecap:round; stroke-linejoin:round;">
</g>
<g style="fill:#000000; fill-opacity:0.0; 
stroke:#000000; stroke-width:59.0551; stroke-opacity:1; 
stroke-linecap:round; stroke-linejoin:round;">
<path d="M53222 78069
L53539 78069
L53368 78263
L53442 78263
L53490 78288
L53515 78312
L53539 78361
L53539 78483
L53515 78532
L53490 78556
L53442 78580
L53295 78580
L53247 78556
L53222 78532
" />
</g>
<g style="fill:#000000; fill-opacity:0.0; 
stroke:#000000; stroke-width:39.3701; stroke-opacity:1; 
stroke-linecap:round; stroke-linejoin:round;">
</g>
<g style="fill:#000000; fill-opacity:0.0; 
stroke:#000000; stroke-width:59.0551; stroke-opacity:1; 
stroke-linecap:round; stroke-linejoin:round;">
<path d="M73175 78239
L73175 78580
" />
<path d="M73053 78044
L72932 78410
L73248 78410
" />
</g>
<g style="fill:#000000; fill-opacity:0.0; 
stroke:#000000; stroke-width:39.3701; stroke-opacity:1; 
stroke-linecap:round; stroke-linejoin:round;">
</g>
<g style="fill:#000000; fill-opacity:0.0; 
stroke:#000000; stroke-width:59.0551; stroke-opacity:1; 
stroke-linecap:round; stroke-linejoin:round;">
<path d="M92885 78069
L92641 78069
L92617 78312
L92641 78288
L92690 78263
L92812 78263
L92860 78288
L92885 78312
L92909 78361
L92909 78483
L92885 78532
L92860 78556
L92812 78580
L92690 78580
L92641 78556
L92617 78532
" />
</g>
<g style="fill:#000000; fill-opacity:0.0; 
stroke:#000000; stroke-width:39.3701; stroke-opacity:1; 
stroke-linecap:round; stroke-linejoin:round;">
</g>
<g style="fill:#000000; fill-opacity:0.0; 
stroke:#000000; stroke-width:59.0551; stroke-opacity:1; 
stroke-linecap:round; stroke-linejoin:round;">
<path d="M112545 78069
L112448 78069
L112399 78093
L112375 78117
L112326 78190
L112302 78288
L112302 78483
L112326 78532
L112350 78556
L112399 78580
L112497 78580
L112545 78556
L112570 78532
L112594 78483
L112594 78361
L112570 78312
L112545 78288
L112497 78263
L112399 78263
L112350 78288
L112326 78312
L112302 78361
" />
</g>
<g style="fill:#000000; fill-opacity:0.0; 
stroke:#000000; stroke-width:39.3701; stroke-opacity:1; 
stroke-linecap:round; stroke-linejoin:round;">
</g>
<g style="fill:#000000; fill-opacity:0.0; 
stroke:#000000; stroke-width:59.0551; stroke-opacity:1; 
stroke-linecap:round; stroke-linejoin:round;">
<path d="M3937 23622
L4724 23622
" />
</g>
<g style="fill:#000000; fill-opacity:0.0; 
stroke:#000000; stroke-width:39.3701; stroke-opacity:1; 
stroke-linecap:round; stroke-linejoin:round;">
</g>
<g style="fill:#000000; fill-opacity:0.0; 
stroke:#000000; stroke-width:59.0551; stroke-opacity:1; 
stroke-linecap:round; stroke-linejoin:round;">
<path d="M3937 43307
L4724 43307
" />
</g>
<g style="fill:#000000; fill-opacity:0.0; 
stroke:#000000; stroke-width:39.3701; stroke-opacity:1; 
stroke-linecap:round; stroke-linejoin:round;">
</g>
<g style="fill:#000000; fill-opacity:0.0; 
stroke:#000000; stroke-width:59.0551; stroke-opacity:1; 
stroke-linecap:round; stroke-linejoin:round;">
<path d="M3937 62992
L4724 62992
" />
</g>
<g style="fill:#000000; fill-opacity:0.0; 
stroke:#000000; stroke-width:39.3701; stroke-opacity:1; 
stroke-linecap:round; stroke-linejoin:round;">
</g>
<g style="fill:#000000; fill-opacity:0.0; 
stroke:#000000; stroke-width:59.0551; stroke-opacity:1; 
stroke-linecap:round; stroke-linejoin:round;">
<path d="M4208 13864
L4452 13864
" />
<path d="M4160 14011
L4330 13499
L4501 14011
" />
</g>
<g style="fill:#000000; fill-opacity:0.0; 
stroke:#000000; stroke-width:39.3701; stroke-opacity:1; 
stroke-linecap:round; stroke-linejoin:round;">
</g>
<g style="fill:#000000; fill-opacity:0.0; 
stroke:#000000; stroke-width:59.0551; stroke-opacity:1; 
stroke-linecap:round; stroke-linejoin:round;">
<path d="M4367 33428
L4440 33452
L4464 33476
L4489 33525
L4489 33598
L4464 33647
L4440 33671
L4391 33696
L4196 33696
L4196 33184
L4367 33184
L4416 33208
L4440 33233
L4464 33281
L4464 33330
L4440 33379
L4416 33403
L4367 33428
L4196 33428
" />
</g>
<g style="fill:#000000; fill-opacity:0.0; 
stroke:#000000; stroke-width:39.3701; stroke-opacity:1; 
stroke-linecap:round; stroke-linejoin:round;">
</g>
<g style="fill:#000000; fill-opacity:0.0; 
stroke:#000000; stroke-width:59.0551; stroke-opacity:1; 
stroke-linecap:round; stroke-linejoin:round;">
<path d="M4489 53332
L4464 53356
L4391 53381
L4342 53381
L4269 53356
L4221 53308
L4196 53259
L4172 53161
L4172 53088
L4196 52991
L4221 52942
L4269 52893
L4342 52869
L4391 52869
L4464 52893
L4489 52918
" />
</g>
<g style="fill:#000000; fill-opacity:0.0; 
stroke:#000000; stroke-width:39.3701; stroke-opacity:1; 
stroke-linecap:round; stroke-linejoin:round;">
</g>
<g style="fill:#000000; fill-opacity:0.0; 
stroke:#000000; stroke-width:59.0551; stroke-opacity:1; 
stroke-linecap:round; stroke-linejoin:round;">
<path d="M4196 73066
L4196 72554
L4318 72554
L4391 72578
L4440 72627
L4464 72676
L4489 72773
L4489 72846
L4464 72944
L4440 72993
L4391 73041
L4318 73066
L4196 73066
" />
</g>
<g style="fill:#000000; fill-opacity:0.0; 
stroke:#000000; stroke-width:39.3701; stroke-opacity:1; 
stroke-linecap:round; stroke-linejoin:round;">
</g>
<g style="fill:#000000; fill-opacity:0.0; 
stroke:#000000; stroke-width:59.0551; stroke-opacity:1; 
stroke-linecap:round; stroke-linejoin:round;">
<path d="M112992 23622
L112205 23622
" />
</g>
<g style="fill:#000000; fill-opacity:0.0; 
stroke:#000000; stroke-width:39.3701; stroke-opacity:1; 
stroke-linecap:round; stroke-linejoin:round;">
</g>
<g style="fill:#000000; fill-opacity:0.0; 
stroke:#000000; stroke-width:59.0551; stroke-opacity:1; 
stroke-linecap:round; stroke-linejoin:round;">
<path d="M112992 43307
L112205 43307
" />
</g>
<g style="fill:#000000; fill-opacity:0.0; 
stroke:#000000; stroke-width:39.3701; stroke-opacity:1; 
stroke-linecap:round; stroke-linejoin:round;">
</g>
<g style="fill:#000000; fill-opacity:0.0; 
stroke:#000000; stroke-width:59.0551; stroke-opacity:1; 
stroke-linecap:round; stroke-linejoin:round;">
<path d="M112992 62992
L112205 62992
" />
</g>
<g style="fill:#000000; fill-opacity:0.0; 
stroke:#000000; stroke-width:39.3701; stroke-opacity:1; 
stroke-linecap:round; stroke-linejoin:round;">
</g>
<g style="fill:#000000; fill-opacity:0.0; 
stroke:#000000; stroke-width:59.0551; stroke-opacity:1; 
stroke-linecap:round; stroke-linejoin:round;">
<path d="M112477 13864
L112721 13864
" />
<path d="M112428 14011
L112599 13499
L112769 14011
" />
</g>
<g style="fill:#000000; fill-opacity:0.0; 
stroke:#000000; stroke-width:39.3701; stroke-opacity:1; 
stroke-linecap:round; stroke-linejoin:round;">
</g>
<g style="fill:#000000; fill-opacity:0.0; 
stroke:#000000; stroke-width:59.0551; stroke-opacity:1; 
stroke-linecap:round; stroke-linejoin:round;">
<path d="M112635 33428
L112708 33452
L112733 33476
L112757 33525
L112757 33598
L112733 33647
L112708 33671
L112660 33696
L112465 33696
L112465 33184
L112635 33184
L112684 33208
L112708 33233
L112733 33281
L112733 33330
L112708 33379
L112684 33403
L112635 33428
L112465 33428
" />
</g>
<g style="fill:#000000; fill-opacity:0.0; 
stroke:#000000; stroke-width:39.3701; stroke-opacity:1; 
stroke-linecap:round; stroke-linejoin:round;">
</g>
<g style="fill:#000000; fill-opacity:0.0; 
stroke:#000000; stroke-width:59.0551; stroke-opacity:1; 
stroke-linecap:round; stroke-linejoin:round;">
<path d="M112757 53332
L112733 53356
L112660 53381
L112611 53381
L112538 53356
L112489 53308
L112465 53259
L112440 53161
L112440 53088
L112465 52991
L112489 52942
L112538 52893
L112611 52869
L112660 52869
L112733 52893
L112757 52918
" />
</g>
<g style="fill:#000000; fill-opacity:0.0; 
stroke:#000000; stroke-width:39.3701; stroke-opacity:1; 
stroke-linecap:round; stroke-linejoin:round;">
</g>
<g style="fill:#000000; fill-opacity:0.0; 
stroke:#000000; stroke-width:59.0551; stroke-opacity:1; 
stroke-linecap:round; stroke-linejoin:round;">
<path d="M112465 73066
L112465 72554
L112587 72554
L112660 72578
L112708 72627
L112733 72676
L112757 72773
L112757 72846
L112733 72944
L112708 72993
L112660 73041
L112587 73066
L112465 73066
" />
</g>
<g style="fill:#000000; fill-opacity:0.0; 
stroke:#000000; stroke-width:39.3701; stroke-opacity:1; 
stroke-linecap:round; stroke-linejoin:round;">
</g>
<g style="fill:#000000; fill-opacity:0.0; 
stroke:#000000; stroke-width:59.0551; stroke-opacity:1; 
stroke-linecap:round; stroke-linejoin:round;">
<path d="M78881 76293
L78881 75703
L79022 75703
L79106 75731
L79162 75787
L79190 75843
L79219 75956
L79219 76040
L79190 76153
L79162 76209
L79106 76265
L79022 76293
L78881 76293
" />
<path d="M79725 76293
L79725 75984
L79697 75928
L79640 75899
L79528 75899
L79472 75928
" />
<path d="M79725 76265
L79669 76293
L79528 76293
L79472 76265
L79444 76209
L79444 76153
L79472 76096
L79528 76068
L79669 76068
L79725 76040
" />
<path d="M79922 75899
L80147 75899
" />
<path d="M80006 75703
L80006 76209
L80034 76265
L80090 76293
L80147 76293
" />
<path d="M80568 76265
L80512 76293
L80400 76293
L80343 76265
L80315 76209
L80315 75984
L80343 75928
L80400 75899
L80512 75899
L80568 75928
L80597 75984
L80597 76040
L80315 76096
" />
<path d="M80850 76237
L80878 76265
L80850 76293
L80822 76265
L80850 76237
L80850 76293
" />
<path d="M80850 75928
L80878 75956
L80850 75984
L80822 75956
L80850 75928
L80850 75984
" />
</g>
<g style="fill:#000000; fill-opacity:0.0; 
stroke:#000000; stroke-width:39.3701; stroke-opacity:1; 
stroke-linecap:round; stroke-linejoin:round;">
</g>
<g style="fill:#000000; fill-opacity:0.0; 
stroke:#000000; stroke-width:59.0551; stroke-opacity:1; 
stroke-linecap:round; stroke-linejoin:round;">
<path d="M69685 76577
L112205 76577
" />
</g>
<g style="fill:#000000; fill-opacity:0.0; 
stroke:#000000; stroke-width:39.3701; stroke-opacity:1; 
stroke-linecap:round; stroke-linejoin:round;">
</g>
<g style="fill:#000000; fill-opacity:0.0; 
stroke:#000000; stroke-width:59.0551; stroke-opacity:1; 
stroke-linecap:round; stroke-linejoin:round;">
<path d="M70220 77395
L70220 76805
" />
<path d="M70557 77395
L70304 77058
" />
<path d="M70557 76805
L70220 77142
" />
<path d="M70810 77395
L70810 77002
" />
<path d="M70810 76805
L70782 76833
L70810 76861
L70838 76833
L70810 76805
L70810 76861
" />
<path d="M71429 77339
L71401 77367
L71316 77395
L71260 77395
L71176 77367
L71120 77311
L71091 77255
L71063 77142
L71063 77058
L71091 76946
L71120 76889
L71176 76833
L71260 76805
L71316 76805
L71401 76833
L71429 76861
" />
<path d="M71935 77395
L71935 77086
L71907 77030
L71851 77002
L71738 77002
L71682 77030
" />
<path d="M71935 77367
L71879 77395
L71738 77395
L71682 77367
L71654 77311
L71654 77255
L71682 77199
L71738 77171
L71879 77171
L71935 77142
" />
<path d="M72469 77395
L72469 76805
" />
<path d="M72469 77367
L72413 77395
L72301 77395
L72244 77367
L72216 77339
L72188 77283
L72188 77114
L72216 77058
L72244 77030
L72301 77002
L72413 77002
L72469 77030
" />
<path d="M73201 77086
L73397 77086
" />
<path d="M73482 77395
L73201 77395
L73201 76805
L73482 76805
" />
<path d="M73735 77339
L73763 77367
L73735 77395
L73707 77367
L73735 77339
L73735 77395
" />
<path d="M74016 77395
L74016 76805
L74157 76805
L74241 76833
L74297 76889
L74325 76946
L74354 77058
L74354 77142
L74325 77255
L74297 77311
L74241 77367
L74157 77395
L74016 77395
" />
<path d="M74607 77339
L74635 77367
L74607 77395
L74579 77367
L74607 77339
L74607 77395
" />
<path d="M74860 77227
L75141 77227
" />
<path d="M74804 77395
L75000 76805
L75197 77395
" />
<path d="M75394 77339
L75422 77367
L75394 77395
L75366 77367
L75394 77339
L75394 77395
" />
<path d="M76575 77395
L76575 76805
" />
<path d="M76631 77171
L76800 77395
" />
<path d="M76800 77002
L76575 77227
" />
<path d="M77053 77395
L77053 77002
" />
<path d="M77053 76805
L77025 76833
L77053 76861
L77081 76833
L77053 76805
L77053 76861
" />
<path d="M77588 77367
L77531 77395
L77419 77395
L77363 77367
L77334 77339
L77306 77283
L77306 77114
L77334 77058
L77363 77030
L77419 77002
L77531 77002
L77588 77030
" />
<path d="M78094 77395
L78094 77086
L78066 77030
L78009 77002
L77897 77002
L77841 77030
" />
<path d="M78094 77367
L78037 77395
L77897 77395
L77841 77367
L77813 77311
L77813 77255
L77841 77199
L77897 77171
L78037 77171
L78094 77142
" />
<path d="M78628 77395
L78628 76805
" />
<path d="M78628 77367
L78572 77395
L78459 77395
L78403 77367
L78375 77339
L78347 77283
L78347 77114
L78375 77058
L78403 77030
L78459 77002
L78572 77002
L78628 77030
" />
<path d="M79612 77002
L79612 77395
" />
<path d="M79472 76777
L79331 77199
L79697 77199
" />
<path d="M79922 77339
L79950 77367
L79922 77395
L79894 77367
L79922 77339
L79922 77395
" />
<path d="M80315 76805
L80372 76805
L80428 76833
L80456 76861
L80484 76917
L80512 77030
L80512 77171
L80484 77283
L80456 77339
L80428 77367
L80372 77395
L80315 77395
L80259 77367
L80231 77339
L80203 77283
L80175 77171
L80175 77030
L80203 76917
L80231 76861
L80259 76833
L80315 76805
" />
<path d="M80765 77339
L80793 77367
L80765 77395
L80737 77367
L80765 77339
L80765 77395
" />
<path d="M80990 76805
L81384 76805
L81131 77395
" />
</g>
<g style="fill:#000000; fill-opacity:0.0; 
stroke:#000000; stroke-width:39.3701; stroke-opacity:1; 
stroke-linecap:round; stroke-linejoin:round;">
</g>
<g style="fill:#000000; fill-opacity:0.0; 
stroke:#000000; stroke-width:59.0551; stroke-opacity:1; 
stroke-linecap:round; stroke-linejoin:round;">
<path d="M69685 75396
L112205 75396
" />
</g>
<g style="fill:#000000; fill-opacity:0.0; 
stroke:#000000; stroke-width:39.3701; stroke-opacity:1; 
stroke-linecap:round; stroke-linejoin:round;">
</g>
<g style="fill:#000000; fill-opacity:0.0; 
stroke:#000000; stroke-width:118.11; stroke-opacity:1; 
stroke-linecap:round; stroke-linejoin:round;">
<path d="M104022 76293
L103825 76012
" />
<path d="M103684 76293
L103684 75703
L103909 75703
L103965 75731
L103994 75759
L104022 75815
L104022 75899
L103994 75956
L103965 75984
L103909 76012
L103684 76012
" />
<path d="M104500 76265
L104444 76293
L104331 76293
L104275 76265
L104247 76209
L104247 75984
L104275 75928
L104331 75899
L104444 75899
L104500 75928
L104528 75984
L104528 76040
L104247 76096
" />
<path d="M104725 75899
L104865 76293
L105006 75899
" />
<path d="M105231 76237
L105259 76265
L105231 76293
L105203 76265
L105231 76237
L105231 76293
" />
<path d="M105231 75928
L105259 75956
L105231 75984
L105203 75956
L105231 75928
L105231 75984
" />
</g>
<g style="fill:#000000; fill-opacity:0.0; 
stroke:#000000; stroke-width:39.3701; stroke-opacity:1; 
stroke-linecap:round; stroke-linejoin:round;">
</g>
<g style="fill:#000000; fill-opacity:0.0; 
stroke:#000000; stroke-width:59.0551; stroke-opacity:1; 
stroke-linecap:round; stroke-linejoin:round;">
<path d="M70192 76265
L70276 76293
L70417 76293
L70473 76265
L70501 76237
L70529 76181
L70529 76124
L70501 76068
L70473 76040
L70417 76012
L70304 75984
L70248 75956
L70220 75928
L70192 75871
L70192 75815
L70220 75759
L70248 75731
L70304 75703
L70445 75703
L70529 75731
" />
<path d="M70782 76293
L70782 75899
" />
<path d="M70782 75703
L70754 75731
L70782 75759
L70810 75731
L70782 75703
L70782 75759
" />
<path d="M71007 75899
L71316 75899
L71007 76293
L71316 76293
" />
<path d="M71766 76265
L71710 76293
L71598 76293
L71541 76265
L71513 76209
L71513 75984
L71541 75928
L71598 75899
L71710 75899
L71766 75928
L71795 75984
L71795 76040
L71513 76096
" />
<path d="M72048 76237
L72076 76265
L72048 76293
L72019 76265
L72048 76237
L72048 76293
" />
<path d="M72048 75928
L72076 75956
L72048 75984
L72019 75956
L72048 75928
L72048 75984
" />
<path d="M72751 76124
L73032 76124
" />
<path d="M72694 76293
L72891 75703
L73088 76293
" />
<path d="M73538 75899
L73538 76293
" />
<path d="M73397 75674
L73257 76096
L73622 76096
" />
</g>
<g style="fill:#000000; fill-opacity:0.0; 
stroke:#000000; stroke-width:39.3701; stroke-opacity:1; 
stroke-linecap:round; stroke-linejoin:round;">
</g>
<g style="fill:#000000; fill-opacity:0.0; 
stroke:#000000; stroke-width:59.0551; stroke-opacity:1; 
stroke-linecap:round; stroke-linejoin:round;">
<path d="M103684 77395
L103684 76805
" />
<path d="M104219 77395
L104219 76805
" />
<path d="M104219 77367
L104162 77395
L104050 77395
L103994 77367
L103965 77339
L103937 77283
L103937 77114
L103965 77058
L103994 77030
L104050 77002
L104162 77002
L104219 77030
" />
<path d="M104500 77339
L104528 77367
L104500 77395
L104472 77367
L104500 77339
L104500 77395
" />
<path d="M104500 77030
L104528 77058
L104500 77086
L104472 77058
L104500 77030
L104500 77086
" />
<path d="M105540 77395
L105203 77395
" />
<path d="M105372 77395
L105372 76805
L105315 76889
L105259 76946
L105203 76974
" />
<path d="M106215 76777
L105709 77536
" />
<path d="M106721 77395
L106384 77395
" />
<path d="M106553 77395
L106553 76805
L106496 76889
L106440 76946
L106384 76974
" />
</g>
<g style="fill:#000000; fill-opacity:0.0; 
stroke:#000000; stroke-width:39.3701; stroke-opacity:1; 
stroke-linecap:round; stroke-linejoin:round;">
</g>
<g style="fill:#000000; fill-opacity:0.0; 
stroke:#000000; stroke-width:59.0551; stroke-opacity:1; 
stroke-linecap:round; stroke-linejoin:round;">
<path d="M69685 73821
L112205 73821
" />
</g>
<g style="fill:#000000; fill-opacity:0.0; 
stroke:#000000; stroke-width:39.3701; stroke-opacity:1; 
stroke-linecap:round; stroke-linejoin:round;">
</g>
<g style="fill:#000000; fill-opacity:0.0; 
stroke:#000000; stroke-width:157.48; stroke-opacity:1; 
stroke-linecap:round; stroke-linejoin:round;">
<path d="M70257 74099
L70707 74099
" />
<path d="M70384 74886
L70482 74099
" />
<path d="M70871 74886
L70937 74361
" />
<path d="M70970 74099
L70927 74136
L70960 74174
L71002 74136
L70970 74099
L70960 74174
" />
<path d="M71199 74361
L71499 74361
" />
<path d="M71345 74099
L71260 74774
L71288 74849
L71359 74886
L71434 74886
" />
<path d="M71809 74886
L71738 74849
L71710 74774
L71795 74099
" />
<path d="M72413 74849
L72334 74886
L72184 74886
L72113 74849
L72085 74774
L72123 74474
L72169 74399
L72249 74361
L72399 74361
L72469 74399
L72498 74474
L72488 74549
L72104 74624
" />
<path d="M72793 74811
L72826 74849
L72783 74886
L72751 74849
L72793 74811
L72783 74886
" />
<path d="M72844 74399
L72877 74436
L72835 74474
L72802 74436
L72844 74399
L72835 74474
" />
</g>
<g style="fill:#000000; fill-opacity:0.0; 
stroke:#000000; stroke-width:39.3701; stroke-opacity:1; 
stroke-linecap:round; stroke-linejoin:round;">
</g>
<g style="fill:#000000; fill-opacity:0.0; 
stroke:#000000; stroke-width:59.0551; stroke-opacity:1; 
stroke-linecap:round; stroke-linejoin:round;">
<path d="M70417 73070
L70220 73070
" />
<path d="M70220 73380
L70220 72789
L70501 72789
" />
<path d="M70726 73380
L70726 72986
" />
<path d="M70726 72789
L70698 72817
L70726 72845
L70754 72817
L70726 72789
L70726 72845
" />
<path d="M71091 73380
L71035 73352
L71007 73295
L71007 72789
" />
<path d="M71541 73352
L71485 73380
L71373 73380
L71316 73352
L71288 73295
L71288 73070
L71316 73014
L71373 72986
L71485 72986
L71541 73014
L71570 73070
L71570 73127
L71288 73183
" />
<path d="M71823 73323
L71851 73352
L71823 73380
L71795 73352
L71823 73323
L71823 73380
" />
<path d="M71823 73014
L71851 73042
L71823 73070
L71795 73042
L71823 73014
L71823 73070
" />
<path d="M72526 73211
L72807 73211
" />
<path d="M72469 73380
L72666 72789
L72863 73380
" />
<path d="M73144 73380
L73088 73352
L73060 73295
L73060 72789
" />
<path d="M73622 73380
L73622 73070
L73594 73014
L73538 72986
L73426 72986
L73369 73014
" />
<path d="M73622 73352
L73566 73380
L73426 73380
L73369 73352
L73341 73295
L73341 73239
L73369 73183
L73426 73155
L73566 73155
L73622 73127
" />
<path d="M73904 73380
L73904 72986
" />
<path d="M73904 73099
L73932 73042
L73960 73014
L74016 72986
L74072 72986
" />
<path d="M74269 73380
L74269 72986
" />
<path d="M74269 73042
L74297 73014
L74354 72986
L74438 72986
L74494 73014
L74522 73070
L74522 73380
" />
<path d="M74522 73070
L74550 73014
L74607 72986
L74691 72986
L74747 73014
L74775 73070
L74775 73380
" />
<path d="M75057 73155
L75507 73155
" />
<path d="M76041 73352
L75985 73380
L75872 73380
L75816 73352
L75788 73323
L75760 73267
L75760 73099
L75788 73042
L75816 73014
L75872 72986
L75985 72986
L76041 73014
" />
<path d="M76378 73380
L76322 73352
L76294 73295
L76294 72789
" />
<path d="M76688 73380
L76631 73352
L76603 73323
L76575 73267
L76575 73099
L76603 73042
L76631 73014
L76688 72986
L76772 72986
L76828 73014
L76856 73042
L76885 73099
L76885 73267
L76856 73323
L76828 73352
L76772 73380
L76688 73380
" />
<path d="M77391 73352
L77334 73380
L77222 73380
L77166 73352
L77138 73323
L77109 73267
L77109 73099
L77138 73042
L77166 73014
L77222 72986
L77334 72986
L77391 73014
" />
<path d="M77644 73380
L77644 72789
" />
<path d="M77700 73155
L77869 73380
" />
<path d="M77869 72986
L77644 73211
" />
<path d="M78122 73155
L78572 73155
" />
<path d="M78797 72986
L78937 73380
L79078 72986
" />
<path d="M79275 72845
L79303 72817
L79359 72789
L79500 72789
L79556 72817
L79584 72845
L79612 72902
L79612 72958
L79584 73042
L79247 73380
L79612 73380
" />
<path d="M79865 73323
L79894 73352
L79865 73380
L79837 73352
L79865 73323
L79865 73380
" />
<path d="M80147 73380
L80147 72789
" />
<path d="M80203 73155
L80372 73380
" />
<path d="M80372 72986
L80147 73211
" />
<path d="M80625 73380
L80625 72986
" />
<path d="M80625 72789
L80597 72817
L80625 72845
L80653 72817
L80625 72789
L80625 72845
" />
<path d="M81159 73352
L81103 73380
L80990 73380
L80934 73352
L80906 73323
L80878 73267
L80878 73099
L80906 73042
L80934 73014
L80990 72986
L81103 72986
L81159 73014
" />
<path d="M81665 73380
L81665 73070
L81637 73014
L81581 72986
L81468 72986
L81412 73014
" />
<path d="M81665 73352
L81609 73380
L81468 73380
L81412 73352
L81384 73295
L81384 73239
L81412 73183
L81468 73155
L81609 73155
L81665 73127
" />
<path d="M82199 73380
L82199 72789
" />
<path d="M82199 73352
L82143 73380
L82031 73380
L81974 73352
L81946 73323
L81918 73267
L81918 73099
L81946 73042
L81974 73014
L82031 72986
L82143 72986
L82199 73014
" />
<path d="M82340 73436
L82790 73436
" />
<path d="M82931 72986
L82931 73577
" />
<path d="M82931 73014
L82987 72986
L83099 72986
L83156 73014
L83184 73042
L83212 73099
L83212 73267
L83184 73323
L83156 73352
L83099 73380
L82987 73380
L82931 73352
" />
<path d="M83718 73352
L83662 73380
L83549 73380
L83493 73352
L83465 73323
L83437 73267
L83437 73099
L83465 73042
L83493 73014
L83549 72986
L83662 72986
L83718 73014
" />
<path d="M83971 73380
L83971 72789
" />
<path d="M83971 73014
L84027 72986
L84140 72986
L84196 73014
L84224 73042
L84252 73099
L84252 73267
L84224 73323
L84196 73352
L84140 73380
L84027 73380
L83971 73352
" />
</g>
<g style="fill:#000000; fill-opacity:0.0; 
stroke:#000000; stroke-width:39.3701; stroke-opacity:1; 
stroke-linecap:round; stroke-linejoin:round;">
</g>
<g style="fill:#000000; fill-opacity:0.0; 
stroke:#000000; stroke-width:59.0551; stroke-opacity:1; 
stroke-linecap:round; stroke-linejoin:round;">
<path d="M69685 71459
L112205 71459
" />
</g>
<g style="fill:#000000; fill-opacity:0.0; 
stroke:#000000; stroke-width:39.3701; stroke-opacity:1; 
stroke-linecap:round; stroke-linejoin:round;">
</g>
<g style="fill:#000000; fill-opacity:0.0; 
stroke:#000000; stroke-width:59.0551; stroke-opacity:1; 
stroke-linecap:round; stroke-linejoin:round;">
<path d="M70192 72289
L70276 72317
L70417 72317
L70473 72289
L70501 72260
L70529 72204
L70529 72148
L70501 72092
L70473 72064
L70417 72036
L70304 72007
L70248 71979
L70220 71951
L70192 71895
L70192 71839
L70220 71782
L70248 71754
L70304 71726
L70445 71726
L70529 71754
" />
<path d="M70782 72317
L70782 71726
" />
<path d="M71035 72317
L71035 72007
L71007 71951
L70951 71923
L70867 71923
L70810 71951
L70782 71979
" />
<path d="M71541 72289
L71485 72317
L71373 72317
L71316 72289
L71288 72232
L71288 72007
L71316 71951
L71373 71923
L71485 71923
L71541 71951
L71570 72007
L71570 72064
L71288 72120
" />
<path d="M72048 72289
L71991 72317
L71879 72317
L71823 72289
L71795 72232
L71795 72007
L71823 71951
L71879 71923
L71991 71923
L72048 71951
L72076 72007
L72076 72064
L71795 72120
" />
<path d="M72244 71923
L72469 71923
" />
<path d="M72329 71726
L72329 72232
L72357 72289
L72413 72317
L72469 72317
" />
<path d="M72666 72260
L72694 72289
L72666 72317
L72638 72289
L72666 72260
L72666 72317
" />
<path d="M72666 71951
L72694 71979
L72666 72007
L72638 71979
L72666 71951
L72666 72007
" />
</g>
<g style="fill:#000000; fill-opacity:0.0; 
stroke:#000000; stroke-width:39.3701; stroke-opacity:1; 
stroke-linecap:round; stroke-linejoin:round;">
</g>
<g style="fill:#000000; fill-opacity:0.0; 
stroke:#000000; stroke-width:59.0551; stroke-opacity:1; 
stroke-linecap:round; stroke-linejoin:round;">
<path d="M77559 75396
L77559 76577
" />
</g>
<g style="fill:#000000; fill-opacity:0.0; 
stroke:#000000; stroke-width:39.3701; stroke-opacity:1; 
stroke-linecap:round; stroke-linejoin:round;">
</g>
<g style="fill:#000000; fill-opacity:0.0; 
stroke:#000000; stroke-width:59.0551; stroke-opacity:1; 
stroke-linecap:round; stroke-linejoin:round;">
<path d="M102756 75396
L102756 77955
" />
</g>
<g style="fill:#C2C200; fill-opacity:0.0; 
stroke:#C2C200; stroke-width:59.0551; stroke-opacity:1; 
stroke-linecap:round; stroke-linejoin:round;">
<path d="M84645 33267
L64566 33267
" />
<path d="M84645 54330
L84645 33267
" />
<path d="M64566 54330
L84645 54330
" />
<path d="M64566 33267
L64566 54330
" />
</g>
<g style="fill:#840000; fill-opacity:0.0; 
stroke:#840000; stroke-width:59.0551; stroke-opacity:1; 
stroke-linecap:round; stroke-linejoin:round;">
</g>
<g style="fill:#840000; fill-opacity:0.0; 
stroke:#840000; stroke-width:0; stroke-opacity:1; 
stroke-linecap:round; stroke-linejoin:round;">
</g>
<g style="fill:#840000; fill-opacity:1.0; 
stroke:#840000; stroke-width:0; stroke-opacity:1; 
stroke-linecap:round; stroke-linejoin:round;">
<polyline style="fill-rule:evenodd;"
points="72480,44517
72480,44301
73070,44301
73070,44517
72480,44517
" /> 
<polyline style="fill-rule:evenodd;"
points="72480,44832
72480,44616
73070,44616
73070,44832
72480,44832
" /> 
<polyline style="fill-rule:evenodd;"
points="72480,45147
72480,44931
73070,44931
73070,45147
72480,45147
" /> 
<polyline style="fill-rule:evenodd;"
points="72480,45462
72480,45246
73070,45246
73070,45462
72480,45462
" /> 
<polyline style="fill-rule:evenodd;"
points="72480,45777
72480,45561
73070,45561
73070,45777
72480,45777
" /> 
<polyline style="fill-rule:evenodd;"
points="72480,46092
72480,45875
73070,45875
73070,46092
72480,46092
" /> 
<polyline style="fill-rule:evenodd;"
points="72480,46407
72480,46190
73070,46190
73070,46407
72480,46407
" /> 
<polyline style="fill-rule:evenodd;"
points="72480,46722
72480,46505
73070,46505
73070,46722
72480,46722
" /> 
<polyline style="fill-rule:evenodd;"
points="72480,47037
72480,46820
73070,46820
73070,47037
72480,47037
" /> 
<polyline style="fill-rule:evenodd;"
points="72480,47352
72480,47135
73070,47135
73070,47352
72480,47352
" /> 
<polyline style="fill-rule:evenodd;"
points="72480,47667
72480,47450
73070,47450
73070,47667
72480,47667
" /> 
<polyline style="fill-rule:evenodd;"
points="73553,48523
73336,48523
73336,47933
73553,47933
73553,48523
" /> 
<polyline style="fill-rule:evenodd;"
points="73868,48523
73651,48523
73651,47933
73868,47933
73868,48523
" /> 
<polyline style="fill-rule:evenodd;"
points="74183,48523
73966,48523
73966,47933
74183,47933
74183,48523
" /> 
<polyline style="fill-rule:evenodd;"
points="74498,48523
74281,48523
74281,47933
74498,47933
74498,48523
" /> 
<polyline style="fill-rule:evenodd;"
points="74812,48523
74596,48523
74596,47933
74812,47933
74812,48523
" /> 
<polyline style="fill-rule:evenodd;"
points="75127,48523
74911,48523
74911,47933
75127,47933
75127,48523
" /> 
<polyline style="fill-rule:evenodd;"
points="75442,48523
75226,48523
75226,47933
75442,47933
75442,48523
" /> 
<polyline style="fill-rule:evenodd;"
points="75757,48523
75541,48523
75541,47933
75757,47933
75757,48523
" /> 
<polyline style="fill-rule:evenodd;"
points="76072,48523
75856,48523
75856,47933
76072,47933
76072,48523
" /> 
<polyline style="fill-rule:evenodd;"
points="76387,48523
76171,48523
76171,47933
76387,47933
76387,48523
" /> 
<polyline style="fill-rule:evenodd;"
points="76702,48523
76486,48523
76486,47933
76702,47933
76702,48523
" /> 
<polyline style="fill-rule:evenodd;"
points="76968,47667
76968,47450
77559,47450
77559,47667
76968,47667
" /> 
<polyline style="fill-rule:evenodd;"
points="76968,47352
76968,47135
77559,47135
77559,47352
76968,47352
" /> 
<polyline style="fill-rule:evenodd;"
points="76968,47037
76968,46820
77559,46820
77559,47037
76968,47037
" /> 
<polyline style="fill-rule:evenodd;"
points="76968,46722
76968,46505
77559,46505
77559,46722
76968,46722
" /> 
<polyline style="fill-rule:evenodd;"
points="76968,46407
76968,46190
77559,46190
77559,46407
76968,46407
" /> 
<polyline style="fill-rule:evenodd;"
points="76968,46092
76968,45875
77559,45875
77559,46092
76968,46092
" /> 
<polyline style="fill-rule:evenodd;"
points="76968,45777
76968,45561
77559,45561
77559,45777
76968,45777
" /> 
<polyline style="fill-rule:evenodd;"
points="76968,45462
76968,45246
77559,45246
77559,45462
76968,45462
" /> 
<polyline style="fill-rule:evenodd;"
points="76968,45147
76968,44931
77559,44931
77559,45147
76968,45147
" /> 
<polyline style="fill-rule:evenodd;"
points="76968,44832
76968,44616
77559,44616
77559,44832
76968,44832
" /> 
<polyline style="fill-rule:evenodd;"
points="76968,44517
76968,44301
77559,44301
77559,44517
76968,44517
" /> 
<polyline style="fill-rule:evenodd;"
points="76702,44035
76486,44035
76486,43444
76702,43444
76702,44035
" /> 
<polyline style="fill-rule:evenodd;"
points="76387,44035
76171,44035
76171,43444
76387,43444
76387,44035
" /> 
<polyline style="fill-rule:evenodd;"
points="76072,44035
75856,44035
75856,43444
76072,43444
76072,44035
" /> 
<polyline style="fill-rule:evenodd;"
points="75757,44035
75541,44035
75541,43444
75757,43444
75757,44035
" /> 
<polyline style="fill-rule:evenodd;"
points="75442,44035
75226,44035
75226,43444
75442,43444
75442,44035
" /> 
<polyline style="fill-rule:evenodd;"
points="75127,44035
74911,44035
74911,43444
75127,43444
75127,44035
" /> 
<polyline style="fill-rule:evenodd;"
points="74812,44035
74596,44035
74596,43444
74812,43444
74812,44035
" /> 
<polyline style="fill-rule:evenodd;"
points="74498,44035
74281,44035
74281,43444
74498,43444
74498,44035
" /> 
<polyline style="fill-rule:evenodd;"
points="74183,44035
73966,44035
73966,43444
74183,43444
74183,44035
" /> 
<polyline style="fill-rule:evenodd;"
points="73868,44035
73651,44035
73651,43444
73868,43444
73868,44035
" /> 
<polyline style="fill-rule:evenodd;"
points="73553,44035
73336,44035
73336,43444
73553,43444
73553,44035
" /> 
<polyline style="fill-rule:evenodd;"
points="76988,52844
76988,52352
77381,52352
77381,52844
76988,52844
" /> 
<polyline style="fill-rule:evenodd;"
points="77775,52844
77775,52352
78169,52352
78169,52844
77775,52844
" /> 
<polyline style="fill-rule:evenodd;"
points="72263,52844
72263,52352
72657,52352
72657,52844
72263,52844
" /> 
<polyline style="fill-rule:evenodd;"
points="73051,52844
73051,52352
73444,52352
73444,52844
73051,52844
" /> 
<polyline style="fill-rule:evenodd;"
points="78681,49744
78090,49744
78090,49153
78681,49153
78681,49744
" /> 
<polyline style="fill-rule:evenodd;"
points="78681,48444
78090,48444
78090,47854
78681,47854
78681,48444
" /> 
<polyline style="fill-rule:evenodd;"
points="68838,44507
68838,45019
68562,45019
68562,44507
68838,44507
" /> 
<polyline style="fill-rule:evenodd;"
points="68090,44507
68090,45019
67814,45019
67814,44507
68090,44507
" /> 
<polyline style="fill-rule:evenodd;"
points="68838,45334
68838,45846
68562,45846
68562,45334
68838,45334
" /> 
<polyline style="fill-rule:evenodd;"
points="68090,45334
68090,45846
67814,45846
67814,45334
68090,45334
" /> 
<polyline style="fill-rule:evenodd;"
points="76515,49192
76515,49704
76240,49704
76240,49192
76515,49192
" /> 
<polyline style="fill-rule:evenodd;"
points="75767,49192
75767,49704
75492,49704
75492,49192
75767,49192
" /> 
<polyline style="fill-rule:evenodd;"
points="78710,50610
78710,51397
75610,51397
75610,50610
78710,50610
" /> 
<polyline style="fill-rule:evenodd;"
points="74035,50610
74035,51397
70935,51397
70935,50610
74035,50610
" /> 
<polyline style="fill-rule:evenodd;"
points="68553,50118
68553,50511
67312,50511
67312,50118
68553,50118
" /> 
<polyline style="fill-rule:evenodd;"
points="66564,50118
66564,50511
65324,50511
65324,50118
66564,50118
" /> 
<polyline style="fill-rule:evenodd;"
points="68553,49118
68553,49511
67312,49511
67312,49118
68553,49118
" /> 
<polyline style="fill-rule:evenodd;"
points="66564,49118
66564,49511
65324,49511
65324,49118
66564,49118
" /> 
<polyline style="fill-rule:evenodd;"
points="68553,48118
68553,48511
67312,48511
67312,48118
68553,48118
" /> 
<polyline style="fill-rule:evenodd;"
points="66564,48118
66564,48511
65324,48511
65324,48118
66564,48118
" /> 
<polyline style="fill-rule:evenodd;"
points="68838,53287
68838,53799
68228,53799
68228,53287
68838,53287
" /> 
<polyline style="fill-rule:evenodd;"
points="65708,53287
65708,53799
65098,53799
65098,53287
65708,53287
" /> 
<polyline style="fill-rule:evenodd;"
points="68838,51515
68838,52027
68228,52027
68228,51515
68838,51515
" /> 
<polyline style="fill-rule:evenodd;"
points="65708,51515
65708,52027
65098,52027
65098,51515
65708,51515
" /> 
<polyline style="fill-rule:evenodd;"
points="70019,46082
70649,46082
70649,46476
70019,46476
70019,46082
" /> 
<polyline style="fill-rule:evenodd;"
points="70019,47263
70649,47263
70649,47657
70019,47657
70019,47263
" /> 
<polyline style="fill-rule:evenodd;"
points="66011,44694
66555,44694
66555,44872
66011,44872
66011,44694
" /> 
<polyline style="fill-rule:evenodd;"
points="66011,44950
66555,44950
66555,45127
66011,45127
66011,44950
" /> 
<polyline style="fill-rule:evenodd;"
points="66011,45206
66555,45206
66555,45383
66011,45383
66011,45206
" /> 
<polyline style="fill-rule:evenodd;"
points="66011,45462
66555,45462
66555,45639
66011,45639
66011,45462
" /> 
<polyline style="fill-rule:evenodd;"
points="66011,45718
66555,45718
66555,45895
66011,45895
66011,45718
" /> 
<polyline style="fill-rule:evenodd;"
points="65728,44035
66555,44035
66555,44616
65728,44616
65728,44035
" /> 
<polyline style="fill-rule:evenodd;"
points="65728,45974
66555,45974
66555,46555
65728,46555
65728,45974
" /> 
<polyline style="fill-rule:evenodd;"
points="64862,43682
65610,43682
65610,44617
64862,44617
64862,43682
" /> 
<polyline style="fill-rule:evenodd;"
points="64862,45973
65610,45973
65610,46908
64862,46908
64862,45973
" /> 
<polyline style="fill-rule:evenodd;"
points="64862,44733
65610,44733
65610,45195
64862,45195
64862,44733
" /> 
<polyline style="fill-rule:evenodd;"
points="64862,45394
65610,45394
65610,45857
64862,45857
64862,45394
" /> 
<polyline style="fill-rule:evenodd;"
points="81811,45098
81811,45610
81535,45610
81535,45098
81811,45098
" /> 
<polyline style="fill-rule:evenodd;"
points="81062,45098
81062,45610
80787,45610
80787,45098
81062,45098
" /> 
<polyline style="fill-rule:evenodd;"
points="79842,44035
79842,44547
79566,44547
79566,44035
79842,44035
" /> 
<polyline style="fill-rule:evenodd;"
points="79094,44035
79094,44547
78818,44547
78818,44035
79094,44035
" /> 
<polyline style="fill-rule:evenodd;"
points="75177,41279
75688,41279
75688,41555
75177,41555
75177,41279
" /> 
<polyline style="fill-rule:evenodd;"
points="75177,42027
75688,42027
75688,42303
75177,42303
75177,42027
" /> 
<polyline style="fill-rule:evenodd;"
points="73425,41279
73937,41279
73937,41555
73425,41555
73425,41279
" /> 
<polyline style="fill-rule:evenodd;"
points="73425,42027
73937,42027
73937,42303
73425,42303
73425,42027
" /> 
<polyline style="fill-rule:evenodd;"
points="72539,41279
73051,41279
73051,41555
72539,41555
72539,41279
" /> 
<polyline style="fill-rule:evenodd;"
points="72539,42027
73051,42027
73051,42303
72539,42303
72539,42027
" /> 
<polyline style="fill-rule:evenodd;"
points="81811,46082
81811,46594
81535,46594
81535,46082
81811,46082
" /> 
<polyline style="fill-rule:evenodd;"
points="81062,46082
81062,46594
80787,46594
80787,46082
81062,46082
" /> 
<polyline style="fill-rule:evenodd;"
points="76043,41279
76555,41279
76555,41555
76043,41555
76043,41279
" /> 
<polyline style="fill-rule:evenodd;"
points="76043,42027
76555,42027
76555,42303
76043,42303
76043,42027
" /> 
<polyline style="fill-rule:evenodd;"
points="74311,41279
74822,41279
74822,41555
74311,41555
74311,41279
" /> 
<polyline style="fill-rule:evenodd;"
points="74311,42027
74822,42027
74822,42303
74311,42303
74311,42027
" /> 
<polyline style="fill-rule:evenodd;"
points="71909,40566
71318,40566
71318,39976
71909,39976
71909,40566
" /> 
<circle cx="72614.2" cy="40271.7" r="295.276" /> 
</g>
<g style="fill:#840000; fill-opacity:1.0; 
stroke:#840000; stroke-width:39.3701; stroke-opacity:1; 
stroke-linecap:round; stroke-linejoin:round;">
</g>
<g style="fill:#840000; fill-opacity:1.0; 
stroke:#840000; stroke-width:0; stroke-opacity:1; 
stroke-linecap:round; stroke-linejoin:round;">
<circle cx="73614.2" cy="40271.7" r="295.276" /> 
</g>
<g style="fill:#840000; fill-opacity:1.0; 
stroke:#840000; stroke-width:39.3701; stroke-opacity:1; 
stroke-linecap:round; stroke-linejoin:round;">
</g>
<g style="fill:#840000; fill-opacity:1.0; 
stroke:#840000; stroke-width:0; stroke-opacity:1; 
stroke-linecap:round; stroke-linejoin:round;">
<circle cx="74614.2" cy="40271.7" r="295.276" /> 
</g>
<g style="fill:#840000; fill-opacity:1.0; 
stroke:#840000; stroke-width:39.3701; stroke-opacity:1; 
stroke-linecap:round; stroke-linejoin:round;">
</g>
<g style="fill:#840000; fill-opacity:1.0; 
stroke:#840000; stroke-width:0; stroke-opacity:1; 
stroke-linecap:round; stroke-linejoin:round;">
<circle cx="75614.2" cy="40271.7" r="295.276" /> 
</g>
<g style="fill:#840000; fill-opacity:1.0; 
stroke:#840000; stroke-width:39.3701; stroke-opacity:1; 
stroke-linecap:round; stroke-linejoin:round;">
</g>
<g style="fill:#840000; fill-opacity:1.0; 
stroke:#840000; stroke-width:0; stroke-opacity:1; 
stroke-linecap:round; stroke-linejoin:round;">
<circle cx="76614.2" cy="40271.7" r="295.276" /> 
</g>
<g style="fill:#840000; fill-opacity:1.0; 
stroke:#840000; stroke-width:39.3701; stroke-opacity:1; 
stroke-linecap:round; stroke-linejoin:round;">
</g>
<g style="fill:#840000; fill-opacity:1.0; 
stroke:#840000; stroke-width:0; stroke-opacity:1; 
stroke-linecap:round; stroke-linejoin:round;">
<circle cx="77614.2" cy="40271.7" r="295.276" /> 
</g>
<g style="fill:#840000; fill-opacity:1.0; 
stroke:#840000; stroke-width:39.3701; stroke-opacity:1; 
stroke-linecap:round; stroke-linejoin:round;">
</g>
<g style="fill:#840000; fill-opacity:1.0; 
stroke:#840000; stroke-width:0; stroke-opacity:1; 
stroke-linecap:round; stroke-linejoin:round;">
<circle cx="76614.2" cy="34271.7" r="295.276" /> 
</g>
<g style="fill:#840000; fill-opacity:1.0; 
stroke:#840000; stroke-width:39.3701; stroke-opacity:1; 
stroke-linecap:round; stroke-linejoin:round;">
</g>
<g style="fill:#840000; fill-opacity:1.0; 
stroke:#840000; stroke-width:0; stroke-opacity:1; 
stroke-linecap:round; stroke-linejoin:round;">
<circle cx="75614.2" cy="34271.7" r="295.276" /> 
</g>
<g style="fill:#840000; fill-opacity:1.0; 
stroke:#840000; stroke-width:39.3701; stroke-opacity:1; 
stroke-linecap:round; stroke-linejoin:round;">
</g>
<g style="fill:#840000; fill-opacity:1.0; 
stroke:#840000; stroke-width:0; stroke-opacity:1; 
stroke-linecap:round; stroke-linejoin:round;">
<circle cx="74614.2" cy="34271.7" r="295.276" /> 
</g>
<g style="fill:#840000; fill-opacity:1.0; 
stroke:#840000; stroke-width:39.3701; stroke-opacity:1; 
stroke-linecap:round; stroke-linejoin:round;">
</g>
<g style="fill:#840000; fill-opacity:1.0; 
stroke:#840000; stroke-width:0; stroke-opacity:1; 
stroke-linecap:round; stroke-linejoin:round;">
<circle cx="73614.2" cy="34271.7" r="295.276" /> 
</g>
<g style="fill:#840000; fill-opacity:1.0; 
stroke:#840000; stroke-width:39.3701; stroke-opacity:1; 
stroke-linecap:round; stroke-linejoin:round;">
</g>
<g style="fill:#840000; fill-opacity:1.0; 
stroke:#840000; stroke-width:0; stroke-opacity:1; 
stroke-linecap:round; stroke-linejoin:round;">
<circle cx="72614.2" cy="34271.7" r="295.276" /> 
</g>
<g style="fill:#840000; fill-opacity:1.0; 
stroke:#840000; stroke-width:39.3701; stroke-opacity:1; 
stroke-linecap:round; stroke-linejoin:round;">
</g>
<g style="fill:#840000; fill-opacity:1.0; 
stroke:#840000; stroke-width:196.85; stroke-opacity:1; 
stroke-linecap:round; stroke-linejoin:round;">
</g>
<g style="fill:#840000; fill-opacity:0.0; 
stroke:#840000; stroke-width:196.85; stroke-opacity:1; 
stroke-linecap:round; stroke-linejoin:round;">
<path d="M77185 52598
L77185 51028
" />
<path d="M77185 51028
L77160 51003
" />
</g>
<g style="fill:#840000; fill-opacity:0.0; 
stroke:#840000; stroke-width:98.4252; stroke-opacity:1; 
stroke-linecap:round; stroke-linejoin:round;">
<path d="M77160 51003
L75511 51003
" />
<path d="M75511 51003
L75019 50511
" />
<path d="M75019 50511
L75019 48622
" />
<path d="M75019 48622
L75019 48228
" />
<path d="M66141 43937
L66141 43228
" />
<path d="M66141 44325
L66141 43937
" />
<path d="M76437 43228
L77007 43228
" />
<path d="M76279 43740
L76279 43385
" />
<path d="M76279 43385
L76437 43228
" />
<path d="M73759 43267
L73602 43110
" />
<path d="M73759 43740
L73759 43267
" />
<path d="M73956 44389
L73759 44192
" />
<path d="M73759 44192
L73759 43740
" />
<path d="M75984 44389
L73956 44389
" />
<path d="M76279 43740
L76279 44094
" />
<path d="M76279 44094
L75984 44389
" />
<path d="M74389 49488
L74271 49606
" />
<path d="M74389 48228
L74389 49488
" />
<path d="M77263 47559
L78188 47559
" />
<path d="M78385 47755
L78385 48149
" />
<path d="M78188 47559
L78385 47755
" />
<path d="M77263 44409
L77972 44409
" />
<path d="M76732 44409
L76555 44586
" />
<path d="M76870 44409
L76732 44409
" />
<path d="M77263 44409
L76870 44409
" />
<path d="M66283 45807
L66283 46123
" />
<path d="M66283 46123
L66141 46264
" />
<path d="M72775 45669
L73484 45669
" />
<path d="M77263 47559
L74527 47559
" />
<path d="M74527 47559
L74389 47696
" />
<path d="M74389 47696
L74389 48228
" />
<path d="M72775 45669
L72185 45669
" />
</g>
<g style="fill:#840000; fill-opacity:0.0; 
stroke:#840000; stroke-width:196.85; stroke-opacity:1; 
stroke-linecap:round; stroke-linejoin:round;">
<path d="M72460 52598
L72460 51028
" />
<path d="M72460 51028
L72485 51003
" />
</g>
<g style="fill:#840000; fill-opacity:0.0; 
stroke:#840000; stroke-width:98.4252; stroke-opacity:1; 
stroke-linecap:round; stroke-linejoin:round;">
<path d="M74704 48622
L74704 48543
" />
<path d="M72485 51003
L74133 51003
" />
<path d="M74133 51003
L74704 50433
" />
<path d="M74704 50433
L74704 48543
" />
<path d="M74704 48543
L74704 48228
" />
<path d="M70334 46279
L70748 46279
" />
<path d="M70748 46279
L71043 45984
" />
<path d="M71043 45984
L72381 45984
" />
<path d="M72381 45984
L72775 45984
" />
<path d="M76377 49448
L78385 49448
" />
<path d="M67952 44763
L67716 44763
" />
<path d="M67716 44763
L67440 45039
" />
<path d="M67440 45039
L66525 45039
" />
<path d="M66525 45039
L66161 45039
" />
<path d="M67992 43740
L71397 43740
" />
<path d="M66929 44783
L67972 43740
" />
<path d="M67972 43740
L67992 43740
" />
<path d="M66283 44783
L66929 44783
" />
<path d="M77263 47244
L76633 47244
" />
<path d="M76633 47244
L75964 46574
" />
<path d="M75964 46574
L75964 44724
" />
</g>
<g style="fill:#840000; fill-opacity:0.0; 
stroke:#840000; stroke-width:196.85; stroke-opacity:1; 
stroke-linecap:round; stroke-linejoin:round;">
<path d="M77657 47244
L78937 47244
" />
<path d="M78937 47244
L79625 47933
" />
</g>
<g style="fill:#840000; fill-opacity:0.0; 
stroke:#840000; stroke-width:98.4252; stroke-opacity:1; 
stroke-linecap:round; stroke-linejoin:round;">
<path d="M71397 43740
L71673 43740
" />
<path d="M71673 44015
L71397 43740
" />
<path d="M72775 44724
L75964 44724
" />
<path d="M75964 44724
L76594 44094
" />
<path d="M76594 44094
L76594 43740
" />
</g>
<g style="fill:#840000; fill-opacity:0.0; 
stroke:#840000; stroke-width:196.85; stroke-opacity:1; 
stroke-linecap:round; stroke-linejoin:round;">
<path d="M70669 52657
L70433 52657
" />
<path d="M70433 52657
L67716 52657
" />
</g>
<g style="fill:#840000; fill-opacity:0.0; 
stroke:#840000; stroke-width:98.4252; stroke-opacity:1; 
stroke-linecap:round; stroke-linejoin:round;">
<path d="M70433 50728
L70433 52657
" />
<path d="M74074 48228
L74074 49055
" />
<path d="M74074 49055
L73326 49803
" />
<path d="M73326 49803
L71358 49803
" />
<path d="M71358 49803
L70433 50728
" />
<path d="M74074 48228
L74074 47913
" />
<path d="M74074 47913
L74074 46614
" />
<path d="M74074 47733
L74074 47913
" />
</g>
<g style="fill:#840000; fill-opacity:0.0; 
stroke:#840000; stroke-width:196.85; stroke-opacity:1; 
stroke-linecap:round; stroke-linejoin:round;">
<path d="M79625 47933
L79625 52677
" />
</g>
<g style="fill:#840000; fill-opacity:0.0; 
stroke:#840000; stroke-width:98.4252; stroke-opacity:1; 
stroke-linecap:round; stroke-linejoin:round;">
<path d="M77263 47244
L77657 47244
" />
</g>
<g style="fill:#840000; fill-opacity:0.0; 
stroke:#840000; stroke-width:196.85; stroke-opacity:1; 
stroke-linecap:round; stroke-linejoin:round;">
<path d="M79625 52677
L78622 53681
" />
<path d="M78622 53681
L71692 53681
" />
<path d="M71692 53681
L70669 52657
" />
<path d="M67716 52657
L65944 50885
" />
<path d="M65944 50885
L65944 50314
" />
</g>
<g style="fill:#840000; fill-opacity:0.0; 
stroke:#840000; stroke-width:98.4252; stroke-opacity:1; 
stroke-linecap:round; stroke-linejoin:round;">
<path d="M74074 46614
L73759 46299
" />
<path d="M73759 46299
L72775 46299
" />
<path d="M71673 43740
L73238 43740
" />
<path d="M72381 44724
L71673 44015
" />
<path d="M72775 44724
L72381 44724
" />
<path d="M73238 43740
L73444 43740
" />
<path d="M67952 45590
L67716 45590
" />
<path d="M67716 45590
L67421 45295
" />
<path d="M67421 45295
L66525 45295
" />
<path d="M66525 45295
L66161 45295
" />
<path d="M68700 44763
L68937 44763
" />
<path d="M68937 44763
L69212 45039
" />
<path d="M69212 45039
L72381 45039
" />
<path d="M72381 45039
L72775 45039
" />
<path d="M68700 45590
L68937 45590
" />
<path d="M68937 45590
L69173 45354
" />
<path d="M69173 45354
L72381 45354
" />
<path d="M72381 45354
L72775 45354
" />
<path d="M75649 48228
L75649 49429
" />
<path d="M75649 49429
L75629 49448
" />
<path d="M72293 47864
L69842 50314
" />
<path d="M69842 50314
L67933 50314
" />
<path d="M72293 47854
L72293 47864
" />
<path d="M72775 47559
L72588 47559
" />
<path d="M72588 47559
L72293 47854
" />
<path d="M69724 49822
L66141 49822
" />
<path d="M72007 47539
L69724 49822
" />
<path d="M72775 47244
L72303 47244
" />
<path d="M72303 47244
L72007 47539
" />
<path d="M66141 49822
L65944 49625
" />
<path d="M65944 49625
L65944 49314
" />
<path d="M73759 48228
L73759 48779
" />
<path d="M68956 51771
L68533 51771
" />
<path d="M73759 48779
L73188 49350
" />
<path d="M73188 49350
L71377 49350
" />
<path d="M71377 49350
L68956 51771
" />
<path d="M65403 51771
L65403 51387
" />
<path d="M64960 50944
L64960 47775
" />
<path d="M65403 51387
L64960 50944
" />
<path d="M67933 48019
L67933 48314
" />
<path d="M64960 47775
L65255 47480
" />
<path d="M65255 47480
L67393 47480
" />
<path d="M67393 47480
L67933 48019
" />
<path d="M72775 46929
L72116 46929
" />
<path d="M72116 46929
L69730 49314
" />
<path d="M69730 49314
L68651 49314
" />
<path d="M68651 49314
L67933 49314
" />
<path d="M76496 36043
L75385 36043
" />
<path d="M75385 36043
L73614 34271
" />
<path d="M81673 41220
L76496 36043
" />
<path d="M81673 45354
L81673 41220
" />
<path d="M77263 45354
L80925 45354
" />
<path d="M79704 44291
L79704 42362
" />
<path d="M79704 42362
L77614 40271
" />
<path d="M78090 44724
L78523 44291
" />
<path d="M78523 44291
L78956 44291
" />
<path d="M77263 44724
L78090 44724
" />
<path d="M75433 41417
L75433 41090
" />
<path d="M75433 41090
L74614 40271
" />
<path d="M75334 43740
L75334 42263
" />
<path d="M75334 42263
L75433 42165
" />
<path d="M72614 40271
L73681 41338
" />
<path d="M73681 41338
L73681 41417
" />
<path d="M73681 41417
L73562 41417
" />
<path d="M74704 43740
L74704 43070
" />
<path d="M74704 43070
L73799 42165
" />
<path d="M73799 42165
L73681 42165
" />
<path d="M72795 41417
L72677 41417
" />
<path d="M72677 41417
L71614 40354
" />
<path d="M71614 40354
L71614 40271
" />
<path d="M74389 43740
L74389 43385
" />
<path d="M74389 43385
L73740 42736
" />
<path d="M72972 42736
L72795 42559
" />
<path d="M73740 42736
L72972 42736
" />
<path d="M72795 42559
L72795 42165
" />
<path d="M76692 35531
L75874 35531
" />
<path d="M75874 35531
L74614 34271
" />
<path d="M82401 41240
L76692 35531
" />
<path d="M82401 45846
L82401 41240
" />
<path d="M81673 46338
L81909 46338
" />
<path d="M81909 46338
L82401 45846
" />
<path d="M79783 45669
L80452 46338
" />
<path d="M80452 46338
L80925 46338
" />
<path d="M77263 45669
L79783 45669
" />
<path d="M76299 41417
L76299 40956
" />
<path d="M76299 40956
L75614 40271
" />
<path d="M76299 42696
L76299 42165
" />
<path d="M75649 43740
L75649 43346
" />
<path d="M75649 43346
L76299 42696
" />
<path d="M74566 41417
L74566 41220
" />
<path d="M74326 40984
L74330 40984
" />
<path d="M74330 40984
L74566 41220
" />
<path d="M74326 40984
L73614 40271
" />
<path d="M74566 41417
L74448 41417
" />
<path d="M73614 40582
L73614 40271
" />
<path d="M75019 42972
L74566 42519
" />
<path d="M74566 42519
L74566 42165
" />
<path d="M75019 43740
L75019 42972
" />
<path d="M76200 36437
L74779 36437
" />
<path d="M74779 36437
L72614 34271
" />
<path d="M80413 40649
L76200 36437
" />
<path d="M80413 44645
L80413 40649
" />
<path d="M80019 45039
L80413 44645
" />
<path d="M77263 45039
L80019 45039
" />
<path d="M77263 45984
L79330 45984
" />
<path d="M79330 45984
L80354 47007
" />
<path d="M80354 47007
L82283 47007
" />
<path d="M82283 47007
L82933 46358
" />
<path d="M82933 46358
L82933 40984
" />
<path d="M82933 40984
L77007 35059
" />
<path d="M77007 35059
L76401 35059
" />
<path d="M76401 35059
L75614 34271
" />
<path d="M76614 34271
L77185 34271
" />
<path d="M77185 34271
L83444 40531
" />
<path d="M83444 40531
L83444 46791
" />
<path d="M83444 46791
L82716 47519
" />
<path d="M82716 47519
L80216 47519
" />
<path d="M80216 47519
L78996 46299
" />
<path d="M78996 46299
L77263 46299
" />
<path d="M77171 42086
L77171 40828
" />
<path d="M75964 43740
L75964 43385
" />
<path d="M75964 43385
L77171 42179
" />
<path d="M77171 42179
L77171 42086
" />
<path d="M76909 40566
L76614 40271
" />
<path d="M77171 40828
L76909 40566
" />
</g>
<g style="fill:#840000; fill-opacity:1.0; 
stroke:#840000; stroke-width:100; stroke-opacity:1; 
stroke-linecap:round; stroke-linejoin:round;">
<polyline style="fill-rule:evenodd;"
points="84366,54051
64846,54051
64846,53655
64848,53655
64848,53848
64886,53940
64956,54011
65048,54049
65291,54049
65353,53986
65353,53593
65453,53593
65453,53986
65516,54049
65758,54049
65850,54011
65920,53940
65958,53848
65958,53655
67978,53655
67978,53848
68016,53940
68086,54011
68178,54049
68420,54049
68483,53986
68483,53593
68583,53593
68583,53986
68645,54049
68888,54049
68980,54011
69050,53940
69088,53848
69088,53655
69026,53593
68583,53593
68483,53593
68040,53593
67978,53655
65958,53655
65896,53593
65453,53593
65353,53593
64910,53593
64848,53655
64846,53655
64846,53237
64848,53237
64848,53430
64910,53493
65353,53493
65353,53099
65453,53099
65453,53493
65896,53493
65958,53430
65958,53237
67978,53237
67978,53430
68040,53493
68483,53493
68483,53099
68583,53099
68583,53493
69026,53493
69088,53430
69088,53237
69050,53145
68980,53075
68888,53037
68645,53037
68583,53099
68483,53099
68420,53037
68178,53037
68086,53075
68016,53145
67978,53237
65958,53237
65920,53145
65850,53075
65758,53037
65516,53037
65453,53099
65353,53099
65291,53037
65048,53037
64956,53075
64886,53145
64848,53237
64846,53237
64846,52043
64860,52120
64915,52205
64999,52262
65098,52282
65708,52282
65801,52265
65886,52210
65943,52126
65963,52027
65963,51515
65946,51423
65891,51338
65807,51280
65708,51260
65671,51260
65615,51176
65259,50820
65259,50753
65324,50766
65596,50766
65596,50885
65596,50885
65608,50944
65622,51019
65669,51088
65698,51132
67470,52903
67470,52903
67583,52979
67605,52983
67716,53005
67716,53005
70524,53005
71446,53927
71446,53927
71535,53986
71559,54003
71692,54029
71692,54029
78622,54029
78622,54029
78733,54007
78755,54003
78868,53927
78868,53927
79872,52923
79872,52923
79947,52810
79947,52810
79974,52677
79974,52677
79974,47933
79974,47933
79947,47799
79947,47799
79872,47686
79872,47686
79183,46997
79152,46977
79070,46922
79048,46917
78937,46895
78937,46895
77813,46895
77813,46820
77804,46769
77813,46722
77813,46598
78872,46598
80004,47731
80102,47796
80216,47818
82716,47818
82831,47796
82928,47731
83656,47002
83721,46905
83744,46791
83744,40531
83721,40416
83656,40319
77396,34060
77299,33995
77185,33972
77080,33972
77076,33963
76923,33809
76723,33726
76506,33726
76305,33809
76152,33962
76114,34053
76076,33963
75923,33809
75723,33726
75506,33726
75305,33809
75152,33962
75114,34053
75076,33963
74923,33809
74723,33726
74506,33726
74305,33809
74152,33962
74114,34053
74076,33963
73923,33809
73723,33726
73506,33726
73305,33809
73152,33962
73114,34053
73076,33963
72923,33809
72723,33726
72506,33726
72305,33809
72152,33962
72068,34162
72068,34379
72151,34580
72304,34733
72505,34816
72722,34817
72732,34812
74567,36648
74665,36713
74779,36736
76076,36736
80114,40773
80114,44521
80097,44538
80097,44035
80079,43942
80025,43857
80003,43843
80003,42362
79981,42247
79916,42150
78155,40389
78159,40380
78159,40163
78076,39963
77923,39809
77723,39726
77506,39726
77305,39809
77152,39962
77114,40053
77076,39963
76923,39809
76723,39726
76506,39726
76305,39809
76152,39962
76114,40053
76076,39963
75923,39809
75723,39726
75506,39726
75305,39809
75152,39962
75114,40053
75076,39963
74923,39809
74723,39726
74506,39726
74305,39809
74152,39962
74114,40053
74076,39963
73923,39809
73723,39726
73506,39726
73305,39809
73152,39962
73114,40053
73076,39963
72923,39809
72723,39726
72506,39726
72305,39809
72160,39954
72146,39883
72092,39798
72008,39741
71909,39721
71318,39721
71226,39738
71141,39793
71084,39877
71064,39976
71064,40566
71081,40659
71136,40744
71219,40801
71318,40821
71658,40821
72284,41447
72284,41555
72301,41647
72356,41732
72440,41789
72445,41790
72361,41844
72304,41928
72284,42027
72284,42303
72301,42395
72356,42480
72440,42537
72496,42549
72496,42559
72518,42673
72583,42770
72760,42947
72857,43012
72972,43035
73616,43035
73821,43240
73788,43262
73759,43304
73735,43267
73684,43232
73647,43194
73601,43194
73593,43198
73553,43189
73336,43189
73243,43207
73158,43262
73101,43345
73082,43440
67972,43440
67857,43463
67760,43528
66805,44484
66805,44484
66805,44438
66742,44375
66191,44375
66191,44383
66091,44383
66091,44375
66083,44375
66083,44275
66091,44275
66091,43847
66191,43847
66191,44275
66742,44275
66805,44213
66805,43985
66767,43893
66696,43823
66604,43785
66254,43785
66191,43847
66091,43847
66029,43785
65860,43785
65860,43632
65822,43540
65751,43470
65659,43432
65348,43432
65286,43494
65286,44099
65294,44099
65294,44199
65286,44199
65286,44914
65294,44914
65294,45014
65286,45014
65286,45575
65294,45575
65294,45675
65286,45675
65286,46390
65294,46390
65294,46490
65286,46490
65286,47095
65348,47158
65659,47158
65751,47120
65822,47050
65860,46958
65860,46805
66029,46805
66091,46742
66091,46314
66191,46314
66191,46742
66254,46805
66604,46805
66696,46767
66767,46696
66805,46604
66805,46377
66742,46314
66191,46314
66091,46314
66083,46314
66083,46214
66091,46214
66091,46206
66191,46206
66191,46214
66742,46214
66805,46152
66805,45913
66797,45906
66767,45832
66742,45808
66789,45738
66795,45709
66805,45700
66805,45668
66804,45667
66810,45639
66810,45594
67297,45594
67504,45802
67560,45838
67560,45846
67577,45939
67632,46024
67715,46081
67814,46101
68090,46101
68183,46083
68268,46029
68325,45945
68326,45940
68380,46024
68463,46081
68562,46101
68838,46101
68931,46083
69016,46029
69073,45945
69093,45846
69093,45838
69148,45802
69297,45653
72316,45653
72339,45669
72315,45685
71043,45685
70928,45707
70831,45772
70753,45851
70748,45847
70649,45827
70019,45827
69927,45845
69841,45899
69784,45983
69764,46082
69764,46476
69782,46569
69836,46654
69920,46711
70019,46731
70649,46731
70742,46713
70827,46659
70884,46575
70892,46535
70959,46491
71167,46283
72225,46283
72225,46407
72235,46458
72225,46505
72225,46629
72116,46629
72001,46652
71904,46717
70888,47733
70899,47707
70899,47573
70837,47510
70384,47510
70384,47844
70447,47907
70699,47907
70725,47896
69606,49015
68784,49015
68735,48940
68652,48883
68553,48863
67312,48863
67220,48880
67135,48935
67078,49018
67058,49118
67058,49511
67060,49523
66817,49523
66819,49511
66819,49118
66802,49025
66747,48940
66664,48883
66564,48863
65324,48863
65259,48875
65259,48755
65275,48761
65832,48761
65894,48699
65894,48364
65994,48364
65994,48699
66057,48761
66614,48761
66706,48723
66776,48653
66814,48561
66814,48427
66752,48364
65994,48364
65894,48364
65887,48364
65887,48264
65894,48264
65894,47930
65994,47930
65994,48264
66752,48264
66814,48202
66814,48068
66776,47976
66706,47906
66614,47868
66057,47868
65994,47930
65894,47930
65832,47868
65291,47868
65379,47779
67269,47779
67353,47863
67312,47863
67220,47880
67135,47935
67078,48018
67058,48118
67058,48511
67075,48604
67130,48689
67213,48746
67312,48766
68553,48766
68645,48749
68730,48694
68787,48610
68808,48511
68808,48118
68790,48025
68735,47940
68652,47883
68553,47863
68181,47863
68144,47808
67909,47573
69769,47573
69769,47707
69807,47799
69878,47869
69969,47907
70222,47907
70284,47844
70284,47510
69832,47510
69769,47573
67909,47573
67605,47268
67523,47214
69769,47214
69769,47348
69832,47410
70284,47410
70284,47076
70384,47076
70384,47410
70837,47410
70899,47348
70899,47214
70861,47122
70791,47051
70699,47013
70447,47013
70384,47076
70284,47076
70222,47013
69969,47013
69878,47051
69807,47122
69769,47214
67523,47214
67508,47203
67393,47181
65255,47181
65141,47203
65044,47268
64846,47466
64846,47158
65123,47158
65186,47095
65186,46490
65178,46490
65178,46390
65186,46390
65186,45675
65178,45675
65178,45575
65186,45575
65186,45014
65178,45014
65178,44914
65186,44914
65186,44199
65178,44199
65178,44099
65186,44099
65186,43494
65123,43432
64846,43432
64846,33547
84366,33547
84366,54051
" /> 
<polyline style="fill-rule:evenodd;"
points="75665,46574
75688,46689
75752,46786
76422,47455
76519,47520
76633,47543
76805,47543
76869,47587
76968,47607
77321,47607
77321,47609
77313,47609
77313,47854
77376,47917
77608,47917
77700,47879
77770,47808
77772,47804
77840,47804
77840,48037
77903,48099
78335,48099
78335,47666
78435,47666
78435,48099
78868,48099
78931,48037
78931,47804
78893,47712
78822,47642
78730,47604
78498,47604
78435,47666
78335,47666
78273,47604
78040,47604
77948,47642
77878,47712
77840,47804
77772,47804
77809,47717
77809,47671
77746,47609
77809,47609
77809,47592
78792,47592
79277,48077
79277,52532
78477,53332
71837,53332
70915,52411
70802,52335
70768,52328
70732,52321
70732,51544
70752,51575
70835,51632
70935,51652
72112,51652
72112,52152
72086,52169
72028,52253
72008,52352
72008,52844
72026,52937
72081,53022
72164,53079
72263,53099
72657,53099
72750,53081
72835,53027
72853,53000
72909,53056
73001,53094
73135,53094
73198,53031
73198,52648
73298,52648
73298,53031
73360,53094
73494,53094
73586,53056
73656,52986
73694,52894
73694,52710
73632,52648
73298,52648
73198,52648
73190,52648
73190,52548
73198,52548
73198,52164
73298,52164
73298,52548
73632,52548
73694,52485
73694,52302
73656,52210
73586,52140
73494,52102
73360,52102
73298,52164
73198,52164
73135,52102
73001,52102
72909,52140
72853,52196
72840,52174
72809,52153
72809,51652
74035,51652
74128,51635
74213,51580
74270,51496
74290,51397
74290,51252
74345,51215
74822,50738
75300,51215
75355,51252
75355,51397
75372,51490
75427,51575
75511,51632
75610,51652
76836,51652
76836,52152
76810,52169
76753,52253
76733,52352
76733,52844
76750,52937
76805,53022
76889,53079
76988,53099
77381,53099
77474,53081
77559,53027
77577,53000
77633,53056
77725,53094
77859,53094
77922,53031
77922,52648
78022,52648
78022,53031
78084,53094
78219,53094
78310,53056
78381,52986
78419,52894
78419,52710
78356,52648
78022,52648
77922,52648
77914,52648
77914,52548
77922,52548
77922,52164
78022,52164
78022,52548
78356,52548
78419,52485
78419,52302
78381,52210
78310,52140
78219,52102
78084,52102
78022,52164
77922,52164
77859,52102
77725,52102
77633,52140
77578,52196
77564,52174
77533,52153
77533,51652
78710,51652
78803,51635
78888,51580
78945,51496
78965,51397
78965,50610
78948,50517
78893,50432
78809,50375
78710,50355
75610,50355
75517,50372
75432,50427
75402,50471
75318,50387
75318,49888
75392,49939
75492,49959
75767,49959
75860,49942
75945,49887
76002,49803
76003,49798
76057,49882
76140,49939
76240,49959
76515,49959
76608,49942
76693,49887
76750,49803
76761,49748
77836,49748
77853,49836
77907,49921
77991,49978
78090,49998
78681,49998
78773,49981
78858,49926
78915,49843
78936,49744
78936,49153
78918,49060
78863,48975
78780,48918
78681,48898
78090,48898
77997,48916
77912,48970
77855,49054
77836,49149
76762,49149
76753,49100
76698,49015
76614,48958
76515,48938
76240,48938
76147,48955
76062,49010
76005,49093
76004,49098
75950,49015
75948,49014
75948,48778
76072,48778
76123,48768
76171,48778
76387,48778
76438,48768
76486,48778
76702,48778
76795,48761
76880,48706
76937,48622
76957,48523
76957,48262
77840,48262
77840,48494
77878,48586
77948,48656
78040,48694
78273,48694
78335,48632
78335,48199
78435,48199
78435,48632
78498,48694
78730,48694
78822,48656
78893,48586
78931,48494
78931,48262
78868,48199
78435,48199
78335,48199
77903,48199
77840,48262
76957,48262
76957,47933
76954,47917
77151,47917
77213,47854
77213,47609
76781,47609
76718,47671
76718,47681
76702,47678
76486,47678
76435,47687
76387,47678
76171,47678
76120,47687
76072,47678
75856,47678
75805,47687
75757,47678
75541,47678
75490,47687
75442,47678
75226,47678
75175,47687
75127,47678
74911,47678
74860,47687
74812,47678
74596,47678
74554,47686
74547,47683
74502,47683
74464,47721
74418,47750
74389,47792
74374,47768
74374,46614
74351,46499
74286,46402
73971,46087
73874,46022
73759,46000
73325,46000
73325,45875
73317,45834
73320,45827
73320,45781
73282,45743
73253,45698
73211,45669
73248,45645
73283,45593
73320,45556
73320,45511
73317,45503
73325,45462
73325,45246
73316,45195
73325,45147
73325,45023
75665,45023
75665,46574
" /> 
<polyline style="fill-rule:evenodd;"
points="74405,48688
74405,50309
74243,50471
74218,50432
74134,50375
74035,50355
71229,50355
71482,50102
73326,50102
73441,50079
73538,50014
74286,49266
74351,49169
74374,49055
74374,48686
74389,48664
74405,48688
" /> 
<polyline style="fill-rule:evenodd;"
points="77505,40816
77722,40817
77732,40812
79405,42486
79405,43842
79389,43852
79332,43936
79331,43941
79277,43857
79193,43800
79094,43780
78818,43780
78726,43797
78641,43852
78584,43936
78572,43992
78523,43992
78409,44014
78312,44079
77966,44425
77722,44425
77658,44381
77559,44361
76968,44361
76875,44378
76790,44433
76755,44484
76718,44521
76718,44567
76721,44575
76713,44616
76713,44832
76723,44883
76713,44931
76713,45147
76723,45198
76713,45246
76713,45462
76723,45513
76713,45561
76713,45777
76723,45828
76713,45875
76713,46092
76723,46143
76713,46190
76713,46407
76723,46458
76713,46505
76713,46722
76723,46773
76713,46820
76713,46900
76263,46450
76263,44848
76766,44345
76781,44359
77213,44359
77213,44113
77313,44113
77313,44359
77746,44359
77809,44296
77809,44251
77770,44159
77700,44089
77608,44051
77376,44051
77313,44113
77213,44113
77151,44051
76954,44051
76957,44035
76957,43444
76940,43352
76885,43267
76801,43210
76702,43189
76583,43189
77382,42390
77447,42293
77470,42179
77470,40828
77464,40800
77505,40816
" /> 
<polyline style="fill-rule:evenodd;"
points="73783,44213
73835,44248
73872,44285
73917,44285
73925,44282
73966,44290
74183,44290
74234,44280
74281,44290
74498,44290
74549,44280
74596,44290
74812,44290
74864,44280
74911,44290
75127,44290
75178,44280
75226,44290
75442,44290
75493,44280
75541,44290
75757,44290
75808,44280
75856,44290
75975,44290
75840,44425
73325,44425
73325,44301
73323,44287
73336,44290
73553,44290
73594,44282
73601,44285
73647,44285
73685,44247
73730,44218
73759,44175
73783,44213
" /> 
</g>
<g style="fill:#FFFFFF; fill-opacity:1.0; 
stroke:#FFFFFF; stroke-width:100; stroke-opacity:1; 
stroke-linecap:round; stroke-linejoin:round;">
</g>
<g style="fill:#FFFFFF; fill-opacity:1.0; 
stroke:#FFFFFF; stroke-width:0; stroke-opacity:1; 
stroke-linecap:round; stroke-linejoin:round;">
<circle cx="71614.2" cy="40271.7" r="196.85" /> 
</g>
<g style="fill:#FFFFFF; fill-opacity:1.0; 
stroke:#FFFFFF; stroke-width:39.3701; stroke-opacity:1; 
stroke-linecap:round; stroke-linejoin:round;">
</g>
<g style="fill:#FFFFFF; fill-opacity:1.0; 
stroke:#FFFFFF; stroke-width:0; stroke-opacity:1; 
stroke-linecap:round; stroke-linejoin:round;">
<circle cx="72614.2" cy="40271.7" r="196.85" /> 
</g>
<g style="fill:#FFFFFF; fill-opacity:1.0; 
stroke:#FFFFFF; stroke-width:39.3701; stroke-opacity:1; 
stroke-linecap:round; stroke-linejoin:round;">
</g>
<g style="fill:#FFFFFF; fill-opacity:1.0; 
stroke:#FFFFFF; stroke-width:0; stroke-opacity:1; 
stroke-linecap:round; stroke-linejoin:round;">
<circle cx="73614.2" cy="40271.7" r="196.85" /> 
</g>
<g style="fill:#FFFFFF; fill-opacity:1.0; 
stroke:#FFFFFF; stroke-width:39.3701; stroke-opacity:1; 
stroke-linecap:round; stroke-linejoin:round;">
</g>
<g style="fill:#FFFFFF; fill-opacity:1.0; 
stroke:#FFFFFF; stroke-width:0; stroke-opacity:1; 
stroke-linecap:round; stroke-linejoin:round;">
<circle cx="74614.2" cy="40271.7" r="196.85" /> 
</g>
<g style="fill:#FFFFFF; fill-opacity:1.0; 
stroke:#FFFFFF; stroke-width:39.3701; stroke-opacity:1; 
stroke-linecap:round; stroke-linejoin:round;">
</g>
<g style="fill:#FFFFFF; fill-opacity:1.0; 
stroke:#FFFFFF; stroke-width:0; stroke-opacity:1; 
stroke-linecap:round; stroke-linejoin:round;">
<circle cx="75614.2" cy="40271.7" r="196.85" /> 
</g>
<g style="fill:#FFFFFF; fill-opacity:1.0; 
stroke:#FFFFFF; stroke-width:39.3701; stroke-opacity:1; 
stroke-linecap:round; stroke-linejoin:round;">
</g>
<g style="fill:#FFFFFF; fill-opacity:1.0; 
stroke:#FFFFFF; stroke-width:0; stroke-opacity:1; 
stroke-linecap:round; stroke-linejoin:round;">
<circle cx="76614.2" cy="40271.7" r="196.85" /> 
</g>
<g style="fill:#FFFFFF; fill-opacity:1.0; 
stroke:#FFFFFF; stroke-width:39.3701; stroke-opacity:1; 
stroke-linecap:round; stroke-linejoin:round;">
</g>
<g style="fill:#FFFFFF; fill-opacity:1.0; 
stroke:#FFFFFF; stroke-width:0; stroke-opacity:1; 
stroke-linecap:round; stroke-linejoin:round;">
<circle cx="77614.2" cy="40271.7" r="196.85" /> 
</g>
<g style="fill:#FFFFFF; fill-opacity:1.0; 
stroke:#FFFFFF; stroke-width:39.3701; stroke-opacity:1; 
stroke-linecap:round; stroke-linejoin:round;">
</g>
<g style="fill:#FFFFFF; fill-opacity:1.0; 
stroke:#FFFFFF; stroke-width:0; stroke-opacity:1; 
stroke-linecap:round; stroke-linejoin:round;">
<circle cx="76614.2" cy="34271.7" r="196.85" /> 
</g>
<g style="fill:#FFFFFF; fill-opacity:1.0; 
stroke:#FFFFFF; stroke-width:39.3701; stroke-opacity:1; 
stroke-linecap:round; stroke-linejoin:round;">
</g>
<g style="fill:#FFFFFF; fill-opacity:1.0; 
stroke:#FFFFFF; stroke-width:0; stroke-opacity:1; 
stroke-linecap:round; stroke-linejoin:round;">
<circle cx="75614.2" cy="34271.7" r="196.85" /> 
</g>
<g style="fill:#FFFFFF; fill-opacity:1.0; 
stroke:#FFFFFF; stroke-width:39.3701; stroke-opacity:1; 
stroke-linecap:round; stroke-linejoin:round;">
</g>
<g style="fill:#FFFFFF; fill-opacity:1.0; 
stroke:#FFFFFF; stroke-width:0; stroke-opacity:1; 
stroke-linecap:round; stroke-linejoin:round;">
<circle cx="74614.2" cy="34271.7" r="196.85" /> 
</g>
<g style="fill:#FFFFFF; fill-opacity:1.0; 
stroke:#FFFFFF; stroke-width:39.3701; stroke-opacity:1; 
stroke-linecap:round; stroke-linejoin:round;">
</g>
<g style="fill:#FFFFFF; fill-opacity:1.0; 
stroke:#FFFFFF; stroke-width:0; stroke-opacity:1; 
stroke-linecap:round; stroke-linejoin:round;">
<circle cx="73614.2" cy="34271.7" r="196.85" /> 
</g>
<g style="fill:#FFFFFF; fill-opacity:1.0; 
stroke:#FFFFFF; stroke-width:39.3701; stroke-opacity:1; 
stroke-linecap:round; stroke-linejoin:round;">
</g>
<g style="fill:#FFFFFF; fill-opacity:1.0; 
stroke:#FFFFFF; stroke-width:0; stroke-opacity:1; 
stroke-linecap:round; stroke-linejoin:round;">
<circle cx="72614.2" cy="34271.7" r="196.85" /> 
</g>
<g style="fill:#FFFFFF; fill-opacity:1.0; 
stroke:#FFFFFF; stroke-width:39.3701; stroke-opacity:1; 
stroke-linecap:round; stroke-linejoin:round;">
</g>
<g style="fill:#000000; fill-opacity:1.0; 
stroke:#000000; stroke-width:39.3701; stroke-opacity:1; 
stroke-linecap:round; stroke-linejoin:round;">
</g> 
</svg>
