G04 #@! TF.FileFunction,Copper,L2,Bot,Signal*
%FSLAX46Y46*%
G04 Gerber Fmt 4.6, Leading zero omitted, Abs format (unit mm)*
G04 Created by KiCad (PCBNEW 4.0.6) date 2018 January 08, Monday 16:40:28*
%MOMM*%
%LPD*%
G01*
G04 APERTURE LIST*
%ADD10C,0.100000*%
%ADD11R,1.905000X1.905000*%
%ADD12C,1.905000*%
%ADD13R,1.651000X1.651000*%
%ADD14C,1.651000*%
%ADD15O,2.032000X1.016000*%
%ADD16C,1.498600*%
%ADD17C,1.320800*%
%ADD18C,1.143000*%
%ADD19C,0.600000*%
%ADD20C,0.250000*%
G04 APERTURE END LIST*
D10*
D11*
X119317000Y-69441000D03*
D12*
X119317000Y-73759000D03*
X126683000Y-73759000D03*
X126683000Y-69441000D03*
D11*
X162863000Y-81639000D03*
D12*
X162863000Y-77321000D03*
X155497000Y-77321000D03*
X155497000Y-81639000D03*
D11*
X162863000Y-74139000D03*
D12*
X162863000Y-69821000D03*
X155497000Y-69821000D03*
X155497000Y-74139000D03*
D13*
X138200000Y-65300000D03*
D14*
X140740000Y-65300000D03*
X143280000Y-65300000D03*
X145820000Y-65300000D03*
X148360000Y-65300000D03*
X150900000Y-65300000D03*
X150900000Y-55140000D03*
X148360000Y-55140000D03*
X145820000Y-55140000D03*
X143280000Y-55140000D03*
X140740000Y-55140000D03*
X138200000Y-55140000D03*
D15*
X118500000Y-80201660D03*
X118500000Y-86800580D03*
D16*
X119100160Y-55200000D03*
X126699840Y-55200000D03*
D17*
X117847000Y-64300000D03*
X128007000Y-64300000D03*
D18*
X154230000Y-92240000D03*
X156770000Y-92240000D03*
X154230000Y-85360000D03*
X156770000Y-85360000D03*
D17*
X161240000Y-90933000D03*
X161240000Y-86107000D03*
D19*
X134100000Y-70800000D03*
X138900260Y-92900000D03*
X138900000Y-49800000D03*
X150800000Y-86500000D03*
X145100000Y-49800000D03*
X150800000Y-85700000D03*
X153000000Y-49800000D03*
X150800000Y-83300000D03*
X150800000Y-87300000D03*
X150800000Y-84900000D03*
X150800000Y-84100000D03*
X132000000Y-78000000D03*
X142500000Y-92450000D03*
X143310000Y-93340000D03*
D20*
X138900260Y-92900000D02*
X134100000Y-88099740D01*
X134100000Y-88099740D02*
X134100000Y-70800000D01*
X150800000Y-86500000D02*
X150375736Y-86500000D01*
X150375736Y-86500000D02*
X139350501Y-75474765D01*
X139350501Y-75474765D02*
X139350501Y-50250501D01*
X139350501Y-50250501D02*
X138900000Y-49800000D01*
X153225002Y-49100000D02*
X145800000Y-49100000D01*
X145800000Y-49100000D02*
X145100000Y-49800000D01*
X150800000Y-85700000D02*
X151224264Y-85700000D01*
X151224264Y-85700000D02*
X153625001Y-83299263D01*
X153625001Y-83299263D02*
X153625001Y-49499999D01*
X153625001Y-49499999D02*
X153225002Y-49100000D01*
X150800000Y-83300000D02*
X153000000Y-81100000D01*
X153000000Y-81100000D02*
X153000000Y-49800000D01*
X135900000Y-72824264D02*
X135900000Y-57440000D01*
X135900000Y-57440000D02*
X137374501Y-55965499D01*
X137374501Y-55965499D02*
X138200000Y-55140000D01*
X150800000Y-87300000D02*
X150375736Y-87300000D01*
X150375736Y-87300000D02*
X135900000Y-72824264D01*
X150800000Y-84900000D02*
X150800000Y-84800000D01*
X150800000Y-84800000D02*
X150725001Y-84725001D01*
X150725001Y-84725001D02*
X150364327Y-84725001D01*
X146970501Y-81331175D02*
X146970501Y-56290501D01*
X150364327Y-84725001D02*
X146970501Y-81331175D01*
X146970501Y-56290501D02*
X146645499Y-55965499D01*
X146645499Y-55965499D02*
X145820000Y-55140000D01*
X150800000Y-84100000D02*
X150375736Y-84100000D01*
X149510501Y-83234765D02*
X149510501Y-56290501D01*
X150375736Y-84100000D02*
X149510501Y-83234765D01*
X149510501Y-56290501D02*
X149185499Y-55965499D01*
X149185499Y-55965499D02*
X148360000Y-55140000D01*
X129900000Y-75900000D02*
X129900000Y-66193000D01*
X129900000Y-66193000D02*
X128007000Y-64300000D01*
X132000000Y-78000000D02*
X129900000Y-75900000D01*
X153060000Y-88020000D02*
X159327000Y-88020000D01*
X159327000Y-88020000D02*
X161240000Y-86107000D01*
X148630000Y-92450000D02*
X153060000Y-88020000D01*
X142500000Y-92450000D02*
X148630000Y-92450000D01*
X149320000Y-93340000D02*
X143310000Y-93340000D01*
X153730000Y-88930000D02*
X149320000Y-93340000D01*
X159230000Y-88930000D02*
X153730000Y-88930000D01*
X160572601Y-90272601D02*
X159230000Y-88930000D01*
X161240000Y-90933000D02*
X160579601Y-90272601D01*
X160579601Y-90272601D02*
X160572601Y-90272601D01*
M02*
