M48
;DRILL file {KiCad 4.0.6} date 2018 January 08, Monday 16:41:50
;FORMAT={-:-/ absolute / metric / decimal}
FMAT,2
METRIC,TZ
T1C0.400
T2C0.508
T3C0.635
T4C0.813
T5C0.889
T6C0.899
T7C1.143
%
G90
G05
M71
T1
X132.Y-78.
X134.1Y-70.8
X138.9Y-49.8
X138.9Y-92.9
X142.5Y-92.45
X143.31Y-93.34
X145.1Y-49.8
X150.8Y-83.3
X150.8Y-84.1
X150.8Y-84.9
X150.8Y-85.7
X150.8Y-86.5
X150.8Y-87.3
X153.Y-49.8
T2
X118.5Y-80.202
X118.5Y-86.801
T3
X154.23Y-85.36
X154.23Y-92.24
X156.77Y-85.36
X156.77Y-92.24
T4
X117.847Y-64.3
X128.007Y-64.3
X161.24Y-86.107
X161.24Y-90.933
T5
X138.2Y-55.14
X138.2Y-65.3
X140.74Y-55.14
X140.74Y-65.3
X143.28Y-55.14
X143.28Y-65.3
X145.82Y-55.14
X145.82Y-65.3
X148.36Y-55.14
X148.36Y-65.3
X150.9Y-55.14
X150.9Y-65.3
T6
X119.1Y-55.2
X126.7Y-55.2
T7
X119.317Y-69.441
X119.317Y-73.759
X126.683Y-69.441
X126.683Y-73.759
X155.497Y-69.821
X155.497Y-74.139
X155.497Y-77.321
X155.497Y-81.639
X162.863Y-69.821
X162.863Y-74.139
X162.863Y-77.321
X162.863Y-81.639
T0
M30
