G04 #@! TF.FileFunction,Legend,Top*
%FSLAX46Y46*%
G04 Gerber Fmt 4.6, Leading zero omitted, Abs format (unit mm)*
G04 Created by KiCad (PCBNEW 4.0.6) date 2018 January 08, Monday 16:40:28*
%MOMM*%
%LPD*%
G01*
G04 APERTURE LIST*
%ADD10C,0.100000*%
%ADD11C,0.200000*%
%ADD12C,0.127000*%
%ADD13C,0.066040*%
%ADD14C,0.076200*%
%ADD15C,0.203200*%
%ADD16C,0.254000*%
%ADD17C,0.063500*%
%ADD18C,0.152400*%
%ADD19C,0.406400*%
%ADD20C,0.101600*%
%ADD21C,0.177800*%
%ADD22C,0.025400*%
%ADD23C,0.050800*%
G04 APERTURE END LIST*
D10*
D11*
X164800000Y-93790000D02*
X164800000Y-83050000D01*
X153000000Y-93810000D02*
X164800000Y-93810000D01*
X153000000Y-83050000D02*
X153000000Y-93810000D01*
X164800000Y-83050000D02*
X153000000Y-83050000D01*
D12*
X123380800Y-81063800D02*
X123380800Y-76136200D01*
X123380800Y-76136200D02*
X125819200Y-76136200D01*
X125819200Y-76136200D02*
X125819200Y-81063800D01*
X125819200Y-81063800D02*
X123380800Y-81063800D01*
D13*
X134960500Y-85938000D02*
X132039500Y-85938000D01*
X132039500Y-85938000D02*
X132039500Y-87462000D01*
X134960500Y-87462000D02*
X132039500Y-87462000D01*
X134960500Y-85938000D02*
X134960500Y-87462000D01*
D12*
X132611000Y-85049000D02*
X134389000Y-85049000D01*
X134389000Y-85049000D02*
X134389000Y-88351000D01*
X134389000Y-88351000D02*
X132611000Y-88351000D01*
X132611000Y-88351000D02*
X132611000Y-85049000D01*
D13*
X119901200Y-74698800D02*
X126098800Y-74698800D01*
X126098800Y-74698800D02*
X126098800Y-68501200D01*
X119901200Y-68501200D02*
X126098800Y-68501200D01*
X119901200Y-74698800D02*
X119901200Y-68501200D01*
D12*
X119901200Y-68501200D02*
X126098800Y-68501200D01*
X126098800Y-68501200D02*
X126098800Y-74698800D01*
X126098800Y-74698800D02*
X119901200Y-74698800D01*
X119901200Y-74698800D02*
X119901200Y-68501200D01*
D13*
X162278800Y-76381200D02*
X156081200Y-76381200D01*
X156081200Y-76381200D02*
X156081200Y-82578800D01*
X162278800Y-82578800D02*
X156081200Y-82578800D01*
X162278800Y-76381200D02*
X162278800Y-82578800D01*
D12*
X162278800Y-82578800D02*
X156081200Y-82578800D01*
X156081200Y-82578800D02*
X156081200Y-76381200D01*
X156081200Y-76381200D02*
X162278800Y-76381200D01*
X162278800Y-76381200D02*
X162278800Y-82578800D01*
D13*
X162278800Y-68881200D02*
X156081200Y-68881200D01*
X156081200Y-68881200D02*
X156081200Y-75078800D01*
X162278800Y-75078800D02*
X156081200Y-75078800D01*
X162278800Y-68881200D02*
X162278800Y-75078800D01*
D12*
X162278800Y-75078800D02*
X156081200Y-75078800D01*
X156081200Y-75078800D02*
X156081200Y-68881200D01*
X156081200Y-68881200D02*
X162278800Y-68881200D01*
X162278800Y-68881200D02*
X162278800Y-75078800D01*
X130451000Y-80611000D02*
X130451000Y-82389000D01*
X130451000Y-82389000D02*
X127149000Y-82389000D01*
X127149000Y-82389000D02*
X127149000Y-80611000D01*
X127149000Y-80611000D02*
X130451000Y-80611000D01*
X130451000Y-83911000D02*
X130451000Y-85689000D01*
X130451000Y-85689000D02*
X127149000Y-85689000D01*
X127149000Y-85689000D02*
X127149000Y-83911000D01*
X127149000Y-83911000D02*
X130451000Y-83911000D01*
D14*
X131606300Y-72138200D02*
X131606300Y-70461800D01*
X131606300Y-70461800D02*
X132393700Y-70461800D01*
X132393700Y-70461800D02*
X132393700Y-72138200D01*
X132393700Y-72138200D02*
X131606300Y-72138200D01*
D12*
X136611000Y-69449000D02*
X138389000Y-69449000D01*
X138389000Y-69449000D02*
X138389000Y-72751000D01*
X138389000Y-72751000D02*
X136611000Y-72751000D01*
X136611000Y-72751000D02*
X136611000Y-69449000D01*
X139511000Y-69449000D02*
X141289000Y-69449000D01*
X141289000Y-69449000D02*
X141289000Y-72751000D01*
X141289000Y-72751000D02*
X139511000Y-72751000D01*
X139511000Y-72751000D02*
X139511000Y-69449000D01*
X142411000Y-69449000D02*
X144189000Y-69449000D01*
X144189000Y-69449000D02*
X144189000Y-72751000D01*
X144189000Y-72751000D02*
X142411000Y-72751000D01*
X142411000Y-72751000D02*
X142411000Y-69449000D01*
X145311000Y-69449000D02*
X147089000Y-69449000D01*
X147089000Y-69449000D02*
X147089000Y-72751000D01*
X147089000Y-72751000D02*
X145311000Y-72751000D01*
X145311000Y-72751000D02*
X145311000Y-69449000D01*
X148211000Y-69449000D02*
X149989000Y-69449000D01*
X149989000Y-69449000D02*
X149989000Y-72751000D01*
X149989000Y-72751000D02*
X148211000Y-72751000D01*
X148211000Y-72751000D02*
X148211000Y-69449000D01*
X141589000Y-52351000D02*
X139811000Y-52351000D01*
X139811000Y-52351000D02*
X139811000Y-49049000D01*
X139811000Y-49049000D02*
X141589000Y-49049000D01*
X141589000Y-49049000D02*
X141589000Y-52351000D01*
X144289000Y-52351000D02*
X142511000Y-52351000D01*
X142511000Y-52351000D02*
X142511000Y-49049000D01*
X142511000Y-49049000D02*
X144289000Y-49049000D01*
X144289000Y-49049000D02*
X144289000Y-52351000D01*
X151789000Y-52351000D02*
X150011000Y-52351000D01*
X150011000Y-52351000D02*
X150011000Y-49049000D01*
X150011000Y-49049000D02*
X151789000Y-49049000D01*
X151789000Y-49049000D02*
X151789000Y-52351000D01*
D13*
X138501940Y-89698060D02*
X148098060Y-89698060D01*
X148098060Y-89698060D02*
X148098060Y-80101940D01*
X138501940Y-80101940D02*
X148098060Y-80101940D01*
X138501940Y-89698060D02*
X138501940Y-80101940D01*
D15*
X138501940Y-80500720D02*
X138900720Y-80101940D01*
X138900720Y-80101940D02*
X148098060Y-80101940D01*
X148098060Y-80101940D02*
X148098060Y-89698060D01*
X148098060Y-89698060D02*
X138501940Y-89698060D01*
X138501940Y-89698060D02*
X138501940Y-80500720D01*
D10*
X137854408Y-79820000D02*
G75*
G03X137854408Y-79820000I-269408J0D01*
G01*
D13*
X129564000Y-67205000D02*
X159536000Y-67205000D01*
X159536000Y-67205000D02*
X159536000Y-53235000D01*
X129564000Y-53235000D02*
X159536000Y-53235000D01*
X129564000Y-67205000D02*
X129564000Y-53235000D01*
D12*
X129564000Y-53235000D02*
X159536000Y-53235000D01*
X159536000Y-53235000D02*
X159536000Y-67205000D01*
X159536000Y-67205000D02*
X129564000Y-67205000D01*
X129564000Y-67205000D02*
X129564000Y-53235000D01*
D13*
X119576960Y-82002520D02*
X119576960Y-84999720D01*
X119576960Y-84999720D02*
X119975740Y-84999720D01*
X119975740Y-82002520D02*
X119975740Y-84999720D01*
X119576960Y-82002520D02*
X119975740Y-82002520D01*
D12*
X116175900Y-79802880D02*
X115576460Y-79503160D01*
X116175900Y-87199360D02*
X115576460Y-87499080D01*
X116076840Y-79802880D02*
X116076840Y-87199360D01*
X115675520Y-80201660D02*
X115675520Y-86698980D01*
X115675520Y-80201660D02*
X115576460Y-79503160D01*
X115675520Y-86698980D02*
X115576460Y-87499080D01*
X121174620Y-81903460D02*
X121174620Y-81001760D01*
X121174620Y-85098780D02*
X121174620Y-85898880D01*
X119876680Y-87199360D02*
X119475360Y-87199360D01*
X117374780Y-87199360D02*
X116175900Y-87199360D01*
X116175900Y-79802880D02*
X117374780Y-79802880D01*
X119576960Y-79802880D02*
X119876680Y-79802880D01*
D16*
X118455000Y-53295000D02*
X119090000Y-53295000D01*
X119725000Y-53295000D02*
X119090000Y-53295000D01*
X119090000Y-53295000D02*
X119090000Y-52660000D01*
X119090000Y-53295000D02*
X119090000Y-53930000D01*
D17*
X127142273Y-55200000D02*
G75*
G03X127142273Y-55200000I-4242273J0D01*
G01*
X123815986Y-55200000D02*
G75*
G03X123815986Y-55200000I-915986J0D01*
G01*
X127142273Y-55200000D02*
G75*
G03X127142273Y-55200000I-4242273J0D01*
G01*
D13*
X126102000Y-64604800D02*
X126965600Y-64604800D01*
X126965600Y-64604800D02*
X126965600Y-63995200D01*
X126102000Y-63995200D02*
X126965600Y-63995200D01*
X126102000Y-64604800D02*
X126102000Y-63995200D01*
X118888400Y-64604800D02*
X119752000Y-64604800D01*
X119752000Y-64604800D02*
X119752000Y-63995200D01*
X118888400Y-63995200D02*
X119752000Y-63995200D01*
X118888400Y-64604800D02*
X118888400Y-63995200D01*
D18*
X119752000Y-65189000D02*
X119752000Y-63411000D01*
X120006000Y-63157000D02*
X120387000Y-63157000D01*
X120514000Y-63284000D02*
X120387000Y-63157000D01*
X120006000Y-65443000D02*
X120387000Y-65443000D01*
X120514000Y-65316000D02*
X120387000Y-65443000D01*
X125340000Y-63284000D02*
X125467000Y-63157000D01*
X125340000Y-63284000D02*
X120514000Y-63284000D01*
X125340000Y-65316000D02*
X125467000Y-65443000D01*
X125340000Y-65316000D02*
X120514000Y-65316000D01*
X125848000Y-63157000D02*
X125467000Y-63157000D01*
X125848000Y-65443000D02*
X125467000Y-65443000D01*
X126102000Y-65189000D02*
X126102000Y-63411000D01*
X120006000Y-63157000D02*
G75*
G03X119752000Y-63411000I0J-254000D01*
G01*
X119752000Y-65189000D02*
G75*
G03X120006000Y-65443000I254000J0D01*
G01*
X125848000Y-65443000D02*
G75*
G03X126102000Y-65189000I0J254000D01*
G01*
X126102000Y-63411000D02*
G75*
G03X125848000Y-63157000I-254000J0D01*
G01*
D13*
X152960000Y-93383000D02*
X158040000Y-93383000D01*
X158040000Y-93383000D02*
X158040000Y-91097000D01*
X152960000Y-91097000D02*
X158040000Y-91097000D01*
X152960000Y-93383000D02*
X152960000Y-91097000D01*
D12*
X152960000Y-91097000D02*
X158040000Y-91097000D01*
X158040000Y-91097000D02*
X158040000Y-93383000D01*
X158040000Y-93383000D02*
X152960000Y-93383000D01*
X152960000Y-93383000D02*
X152960000Y-91097000D01*
D13*
X152960000Y-86503000D02*
X158040000Y-86503000D01*
X158040000Y-86503000D02*
X158040000Y-84217000D01*
X152960000Y-84217000D02*
X158040000Y-84217000D01*
X152960000Y-86503000D02*
X152960000Y-84217000D01*
D12*
X152960000Y-84217000D02*
X158040000Y-84217000D01*
X158040000Y-84217000D02*
X158040000Y-86503000D01*
X158040000Y-86503000D02*
X152960000Y-86503000D01*
X152960000Y-86503000D02*
X152960000Y-84217000D01*
D19*
X163399000Y-91568000D02*
X163399000Y-85472000D01*
X159081000Y-91568000D02*
X159081000Y-85472000D01*
D18*
X162891000Y-91568000D02*
X162891000Y-85472000D01*
X159589000Y-85472000D02*
X159589000Y-91568000D01*
X160478000Y-88774000D02*
X160478000Y-88266000D01*
X160478000Y-88266000D02*
X162002000Y-88266000D01*
X162002000Y-88266000D02*
X162002000Y-88774000D01*
X162002000Y-88774000D02*
X160478000Y-88774000D01*
X160478000Y-87885000D02*
X161240000Y-87885000D01*
X161240000Y-87885000D02*
X162002000Y-87885000D01*
X160478000Y-89155000D02*
X161240000Y-89155000D01*
X161240000Y-89155000D02*
X162002000Y-89155000D01*
X161240000Y-87885000D02*
X161240000Y-87250000D01*
X161240000Y-89155000D02*
X161240000Y-89790000D01*
D19*
X159081000Y-91568000D02*
G75*
G03X163399000Y-91568000I2159000J0D01*
G01*
X163399000Y-85472000D02*
G75*
G03X159081000Y-85472000I-2159000J0D01*
G01*
D18*
X159589000Y-91568000D02*
G75*
G03X162891000Y-91568000I1651000J0D01*
G01*
X162891000Y-85472000D02*
G75*
G03X159589000Y-85472000I-1651000J0D01*
G01*
D20*
X122949000Y-79065666D02*
X122991333Y-79108000D01*
X123033667Y-79235000D01*
X123033667Y-79319666D01*
X122991333Y-79446666D01*
X122906667Y-79531333D01*
X122822000Y-79573666D01*
X122652667Y-79616000D01*
X122525667Y-79616000D01*
X122356333Y-79573666D01*
X122271667Y-79531333D01*
X122187000Y-79446666D01*
X122144667Y-79319666D01*
X122144667Y-79235000D01*
X122187000Y-79108000D01*
X122229333Y-79065666D01*
X123033667Y-78219000D02*
X123033667Y-78727000D01*
X123033667Y-78473000D02*
X122144667Y-78473000D01*
X122271667Y-78557666D01*
X122356333Y-78642333D01*
X122398667Y-78727000D01*
X132230000Y-86530666D02*
X132272333Y-86573000D01*
X132314667Y-86700000D01*
X132314667Y-86784666D01*
X132272333Y-86911666D01*
X132187667Y-86996333D01*
X132103000Y-87038666D01*
X131933667Y-87081000D01*
X131806667Y-87081000D01*
X131637333Y-87038666D01*
X131552667Y-86996333D01*
X131468000Y-86911666D01*
X131425667Y-86784666D01*
X131425667Y-86700000D01*
X131468000Y-86573000D01*
X131510333Y-86530666D01*
X131510333Y-86192000D02*
X131468000Y-86149666D01*
X131425667Y-86065000D01*
X131425667Y-85853333D01*
X131468000Y-85768666D01*
X131510333Y-85726333D01*
X131595000Y-85684000D01*
X131679667Y-85684000D01*
X131806667Y-85726333D01*
X132314667Y-86234333D01*
X132314667Y-85684000D01*
X122661334Y-68255667D02*
X122661334Y-67366667D01*
X123169334Y-68255667D02*
X122788334Y-67747667D01*
X123169334Y-67366667D02*
X122661334Y-67874667D01*
X124016000Y-68255667D02*
X123508000Y-68255667D01*
X123762000Y-68255667D02*
X123762000Y-67366667D01*
X123677334Y-67493667D01*
X123592667Y-67578333D01*
X123508000Y-67620667D01*
X158073834Y-84112167D02*
X158073834Y-83223167D01*
X158581834Y-84112167D02*
X158200834Y-83604167D01*
X158581834Y-83223167D02*
X158073834Y-83731167D01*
X158920500Y-83307833D02*
X158962834Y-83265500D01*
X159047500Y-83223167D01*
X159259167Y-83223167D01*
X159343834Y-83265500D01*
X159386167Y-83307833D01*
X159428500Y-83392500D01*
X159428500Y-83477167D01*
X159386167Y-83604167D01*
X158878167Y-84112167D01*
X159428500Y-84112167D01*
X158206334Y-76128667D02*
X158206334Y-75239667D01*
X158714334Y-76128667D02*
X158333334Y-75620667D01*
X158714334Y-75239667D02*
X158206334Y-75747667D01*
X159010667Y-75239667D02*
X159561000Y-75239667D01*
X159264667Y-75578333D01*
X159391667Y-75578333D01*
X159476334Y-75620667D01*
X159518667Y-75663000D01*
X159561000Y-75747667D01*
X159561000Y-75959333D01*
X159518667Y-76044000D01*
X159476334Y-76086333D01*
X159391667Y-76128667D01*
X159137667Y-76128667D01*
X159053000Y-76086333D01*
X159010667Y-76044000D01*
X128969334Y-80441667D02*
X128673000Y-80018333D01*
X128461334Y-80441667D02*
X128461334Y-79552667D01*
X128800000Y-79552667D01*
X128884667Y-79595000D01*
X128927000Y-79637333D01*
X128969334Y-79722000D01*
X128969334Y-79849000D01*
X128927000Y-79933667D01*
X128884667Y-79976000D01*
X128800000Y-80018333D01*
X128461334Y-80018333D01*
X129816000Y-80441667D02*
X129308000Y-80441667D01*
X129562000Y-80441667D02*
X129562000Y-79552667D01*
X129477334Y-79679667D01*
X129392667Y-79764333D01*
X129308000Y-79806667D01*
X128969334Y-83741667D02*
X128673000Y-83318333D01*
X128461334Y-83741667D02*
X128461334Y-82852667D01*
X128800000Y-82852667D01*
X128884667Y-82895000D01*
X128927000Y-82937333D01*
X128969334Y-83022000D01*
X128969334Y-83149000D01*
X128927000Y-83233667D01*
X128884667Y-83276000D01*
X128800000Y-83318333D01*
X128461334Y-83318333D01*
X129308000Y-82937333D02*
X129350334Y-82895000D01*
X129435000Y-82852667D01*
X129646667Y-82852667D01*
X129731334Y-82895000D01*
X129773667Y-82937333D01*
X129816000Y-83022000D01*
X129816000Y-83106667D01*
X129773667Y-83233667D01*
X129265667Y-83741667D01*
X129816000Y-83741667D01*
X131322667Y-70495666D02*
X130899333Y-70792000D01*
X131322667Y-71003666D02*
X130433667Y-71003666D01*
X130433667Y-70665000D01*
X130476000Y-70580333D01*
X130518333Y-70538000D01*
X130603000Y-70495666D01*
X130730000Y-70495666D01*
X130814667Y-70538000D01*
X130857000Y-70580333D01*
X130899333Y-70665000D01*
X130899333Y-71003666D01*
X130433667Y-70199333D02*
X130433667Y-69649000D01*
X130772333Y-69945333D01*
X130772333Y-69818333D01*
X130814667Y-69733666D01*
X130857000Y-69691333D01*
X130941667Y-69649000D01*
X131153333Y-69649000D01*
X131238000Y-69691333D01*
X131280333Y-69733666D01*
X131322667Y-69818333D01*
X131322667Y-70072333D01*
X131280333Y-70157000D01*
X131238000Y-70199333D01*
X136441667Y-70930666D02*
X136018333Y-71227000D01*
X136441667Y-71438666D02*
X135552667Y-71438666D01*
X135552667Y-71100000D01*
X135595000Y-71015333D01*
X135637333Y-70973000D01*
X135722000Y-70930666D01*
X135849000Y-70930666D01*
X135933667Y-70973000D01*
X135976000Y-71015333D01*
X136018333Y-71100000D01*
X136018333Y-71438666D01*
X135849000Y-70168666D02*
X136441667Y-70168666D01*
X135510333Y-70380333D02*
X136145333Y-70592000D01*
X136145333Y-70041666D01*
X139341667Y-70930666D02*
X138918333Y-71227000D01*
X139341667Y-71438666D02*
X138452667Y-71438666D01*
X138452667Y-71100000D01*
X138495000Y-71015333D01*
X138537333Y-70973000D01*
X138622000Y-70930666D01*
X138749000Y-70930666D01*
X138833667Y-70973000D01*
X138876000Y-71015333D01*
X138918333Y-71100000D01*
X138918333Y-71438666D01*
X138452667Y-70126333D02*
X138452667Y-70549666D01*
X138876000Y-70592000D01*
X138833667Y-70549666D01*
X138791333Y-70465000D01*
X138791333Y-70253333D01*
X138833667Y-70168666D01*
X138876000Y-70126333D01*
X138960667Y-70084000D01*
X139172333Y-70084000D01*
X139257000Y-70126333D01*
X139299333Y-70168666D01*
X139341667Y-70253333D01*
X139341667Y-70465000D01*
X139299333Y-70549666D01*
X139257000Y-70592000D01*
X142241667Y-70930666D02*
X141818333Y-71227000D01*
X142241667Y-71438666D02*
X141352667Y-71438666D01*
X141352667Y-71100000D01*
X141395000Y-71015333D01*
X141437333Y-70973000D01*
X141522000Y-70930666D01*
X141649000Y-70930666D01*
X141733667Y-70973000D01*
X141776000Y-71015333D01*
X141818333Y-71100000D01*
X141818333Y-71438666D01*
X141352667Y-70168666D02*
X141352667Y-70338000D01*
X141395000Y-70422666D01*
X141437333Y-70465000D01*
X141564333Y-70549666D01*
X141733667Y-70592000D01*
X142072333Y-70592000D01*
X142157000Y-70549666D01*
X142199333Y-70507333D01*
X142241667Y-70422666D01*
X142241667Y-70253333D01*
X142199333Y-70168666D01*
X142157000Y-70126333D01*
X142072333Y-70084000D01*
X141860667Y-70084000D01*
X141776000Y-70126333D01*
X141733667Y-70168666D01*
X141691333Y-70253333D01*
X141691333Y-70422666D01*
X141733667Y-70507333D01*
X141776000Y-70549666D01*
X141860667Y-70592000D01*
X145141667Y-70930666D02*
X144718333Y-71227000D01*
X145141667Y-71438666D02*
X144252667Y-71438666D01*
X144252667Y-71100000D01*
X144295000Y-71015333D01*
X144337333Y-70973000D01*
X144422000Y-70930666D01*
X144549000Y-70930666D01*
X144633667Y-70973000D01*
X144676000Y-71015333D01*
X144718333Y-71100000D01*
X144718333Y-71438666D01*
X144252667Y-70634333D02*
X144252667Y-70041666D01*
X145141667Y-70422666D01*
X148041667Y-70930666D02*
X147618333Y-71227000D01*
X148041667Y-71438666D02*
X147152667Y-71438666D01*
X147152667Y-71100000D01*
X147195000Y-71015333D01*
X147237333Y-70973000D01*
X147322000Y-70930666D01*
X147449000Y-70930666D01*
X147533667Y-70973000D01*
X147576000Y-71015333D01*
X147618333Y-71100000D01*
X147618333Y-71438666D01*
X147533667Y-70422666D02*
X147491333Y-70507333D01*
X147449000Y-70549666D01*
X147364333Y-70592000D01*
X147322000Y-70592000D01*
X147237333Y-70549666D01*
X147195000Y-70507333D01*
X147152667Y-70422666D01*
X147152667Y-70253333D01*
X147195000Y-70168666D01*
X147237333Y-70126333D01*
X147322000Y-70084000D01*
X147364333Y-70084000D01*
X147449000Y-70126333D01*
X147491333Y-70168666D01*
X147533667Y-70253333D01*
X147533667Y-70422666D01*
X147576000Y-70507333D01*
X147618333Y-70549666D01*
X147703000Y-70592000D01*
X147872333Y-70592000D01*
X147957000Y-70549666D01*
X147999333Y-70507333D01*
X148041667Y-70422666D01*
X148041667Y-70253333D01*
X147999333Y-70168666D01*
X147957000Y-70126333D01*
X147872333Y-70084000D01*
X147703000Y-70084000D01*
X147618333Y-70126333D01*
X147576000Y-70168666D01*
X147533667Y-70253333D01*
X142562667Y-51165666D02*
X142139333Y-51462000D01*
X142562667Y-51673666D02*
X141673667Y-51673666D01*
X141673667Y-51335000D01*
X141716000Y-51250333D01*
X141758333Y-51208000D01*
X141843000Y-51165666D01*
X141970000Y-51165666D01*
X142054667Y-51208000D01*
X142097000Y-51250333D01*
X142139333Y-51335000D01*
X142139333Y-51673666D01*
X142562667Y-50742333D02*
X142562667Y-50573000D01*
X142520333Y-50488333D01*
X142478000Y-50446000D01*
X142351000Y-50361333D01*
X142181667Y-50319000D01*
X141843000Y-50319000D01*
X141758333Y-50361333D01*
X141716000Y-50403666D01*
X141673667Y-50488333D01*
X141673667Y-50657666D01*
X141716000Y-50742333D01*
X141758333Y-50784666D01*
X141843000Y-50827000D01*
X142054667Y-50827000D01*
X142139333Y-50784666D01*
X142181667Y-50742333D01*
X142224000Y-50657666D01*
X142224000Y-50488333D01*
X142181667Y-50403666D01*
X142139333Y-50361333D01*
X142054667Y-50319000D01*
X145262667Y-51589000D02*
X144839333Y-51885334D01*
X145262667Y-52097000D02*
X144373667Y-52097000D01*
X144373667Y-51758334D01*
X144416000Y-51673667D01*
X144458333Y-51631334D01*
X144543000Y-51589000D01*
X144670000Y-51589000D01*
X144754667Y-51631334D01*
X144797000Y-51673667D01*
X144839333Y-51758334D01*
X144839333Y-52097000D01*
X145262667Y-50742334D02*
X145262667Y-51250334D01*
X145262667Y-50996334D02*
X144373667Y-50996334D01*
X144500667Y-51081000D01*
X144585333Y-51165667D01*
X144627667Y-51250334D01*
X144373667Y-50192000D02*
X144373667Y-50107333D01*
X144416000Y-50022667D01*
X144458333Y-49980333D01*
X144543000Y-49938000D01*
X144712333Y-49895667D01*
X144924000Y-49895667D01*
X145093333Y-49938000D01*
X145178000Y-49980333D01*
X145220333Y-50022667D01*
X145262667Y-50107333D01*
X145262667Y-50192000D01*
X145220333Y-50276667D01*
X145178000Y-50319000D01*
X145093333Y-50361333D01*
X144924000Y-50403667D01*
X144712333Y-50403667D01*
X144543000Y-50361333D01*
X144458333Y-50319000D01*
X144416000Y-50276667D01*
X144373667Y-50192000D01*
X152762667Y-51589000D02*
X152339333Y-51885334D01*
X152762667Y-52097000D02*
X151873667Y-52097000D01*
X151873667Y-51758334D01*
X151916000Y-51673667D01*
X151958333Y-51631334D01*
X152043000Y-51589000D01*
X152170000Y-51589000D01*
X152254667Y-51631334D01*
X152297000Y-51673667D01*
X152339333Y-51758334D01*
X152339333Y-52097000D01*
X152762667Y-50742334D02*
X152762667Y-51250334D01*
X152762667Y-50996334D02*
X151873667Y-50996334D01*
X152000667Y-51081000D01*
X152085333Y-51165667D01*
X152127667Y-51250334D01*
X152762667Y-49895667D02*
X152762667Y-50403667D01*
X152762667Y-50149667D02*
X151873667Y-50149667D01*
X152000667Y-50234333D01*
X152085333Y-50319000D01*
X152127667Y-50403667D01*
X142940167Y-76983667D02*
X142940167Y-77703333D01*
X142982500Y-77788000D01*
X143024833Y-77830333D01*
X143109500Y-77872667D01*
X143278833Y-77872667D01*
X143363500Y-77830333D01*
X143405833Y-77788000D01*
X143448167Y-77703333D01*
X143448167Y-76983667D01*
X144337166Y-77872667D02*
X143829166Y-77872667D01*
X144083166Y-77872667D02*
X144083166Y-76983667D01*
X143998500Y-77110667D01*
X143913833Y-77195333D01*
X143829166Y-77237667D01*
D21*
X130945333Y-54126333D02*
X130945333Y-55565667D01*
X131030000Y-55735000D01*
X131114667Y-55819667D01*
X131284000Y-55904333D01*
X131622667Y-55904333D01*
X131792000Y-55819667D01*
X131876667Y-55735000D01*
X131961333Y-55565667D01*
X131961333Y-54126333D01*
X132723334Y-54295667D02*
X132808000Y-54211000D01*
X132977334Y-54126333D01*
X133400667Y-54126333D01*
X133570000Y-54211000D01*
X133654667Y-54295667D01*
X133739334Y-54465000D01*
X133739334Y-54634333D01*
X133654667Y-54888333D01*
X132638667Y-55904333D01*
X133739334Y-55904333D01*
D14*
X150400467Y-56196035D02*
X150942334Y-56196035D01*
X150593991Y-57008835D01*
X138222981Y-57008835D02*
X137758524Y-57008835D01*
X137990753Y-57008835D02*
X137990753Y-56196035D01*
X137913343Y-56312150D01*
X137835934Y-56389559D01*
X137758524Y-56428264D01*
X138532619Y-56273445D02*
X138571324Y-56234740D01*
X138648733Y-56196035D01*
X138842257Y-56196035D01*
X138919667Y-56234740D01*
X138958371Y-56273445D01*
X138997076Y-56350854D01*
X138997076Y-56428264D01*
X138958371Y-56544378D01*
X138493914Y-57008835D01*
X138997076Y-57008835D01*
D20*
X122402287Y-85363786D02*
X123121953Y-85363786D01*
X123206620Y-85321453D01*
X123248953Y-85279120D01*
X123291287Y-85194453D01*
X123291287Y-85025120D01*
X123248953Y-84940453D01*
X123206620Y-84898120D01*
X123121953Y-84855786D01*
X122402287Y-84855786D01*
X123248953Y-84474787D02*
X123291287Y-84347787D01*
X123291287Y-84136120D01*
X123248953Y-84051453D01*
X123206620Y-84009120D01*
X123121953Y-83966787D01*
X123037287Y-83966787D01*
X122952620Y-84009120D01*
X122910287Y-84051453D01*
X122867953Y-84136120D01*
X122825620Y-84305453D01*
X122783287Y-84390120D01*
X122740953Y-84432453D01*
X122656287Y-84474787D01*
X122571620Y-84474787D01*
X122486953Y-84432453D01*
X122444620Y-84390120D01*
X122402287Y-84305453D01*
X122402287Y-84093787D01*
X122444620Y-83966787D01*
X122825620Y-83289453D02*
X122867953Y-83162453D01*
X122910287Y-83120120D01*
X122994953Y-83077786D01*
X123121953Y-83077786D01*
X123206620Y-83120120D01*
X123248953Y-83162453D01*
X123291287Y-83247120D01*
X123291287Y-83585786D01*
X122402287Y-83585786D01*
X122402287Y-83289453D01*
X122444620Y-83204786D01*
X122486953Y-83162453D01*
X122571620Y-83120120D01*
X122656287Y-83120120D01*
X122740953Y-83162453D01*
X122783287Y-83204786D01*
X122825620Y-83289453D01*
X122825620Y-83585786D01*
X123291287Y-82231120D02*
X123291287Y-82739120D01*
X123291287Y-82485120D02*
X122402287Y-82485120D01*
X122529287Y-82569786D01*
X122613953Y-82654453D01*
X122656287Y-82739120D01*
D22*
X114766152Y-87315332D02*
X114746800Y-87295980D01*
X114727448Y-87257275D01*
X114727448Y-87160513D01*
X114746800Y-87121809D01*
X114766152Y-87102456D01*
X114804857Y-87083104D01*
X114843562Y-87083104D01*
X114901619Y-87102456D01*
X115133848Y-87334685D01*
X115133848Y-87083104D01*
X115114495Y-86618646D02*
X115133848Y-86579942D01*
X115133848Y-86502532D01*
X115114495Y-86463827D01*
X115075790Y-86444475D01*
X115056438Y-86444475D01*
X115017733Y-86463827D01*
X114998381Y-86502532D01*
X114998381Y-86560589D01*
X114979029Y-86599294D01*
X114940324Y-86618646D01*
X114920971Y-86618646D01*
X114882267Y-86599294D01*
X114862914Y-86560589D01*
X114862914Y-86502532D01*
X114882267Y-86463827D01*
X115133848Y-86212247D02*
X115114495Y-86250952D01*
X115075790Y-86270304D01*
X114727448Y-86270304D01*
X115133848Y-85999371D02*
X115114495Y-86038076D01*
X115095143Y-86057428D01*
X115056438Y-86076780D01*
X114940324Y-86076780D01*
X114901619Y-86057428D01*
X114882267Y-86038076D01*
X114862914Y-85999371D01*
X114862914Y-85941314D01*
X114882267Y-85902609D01*
X114901619Y-85883257D01*
X114940324Y-85863904D01*
X115056438Y-85863904D01*
X115095143Y-85883257D01*
X115114495Y-85902609D01*
X115133848Y-85941314D01*
X115133848Y-85999371D01*
X114862914Y-85747790D02*
X114862914Y-85592971D01*
X114727448Y-85689733D02*
X115075790Y-85689733D01*
X115114495Y-85670381D01*
X115133848Y-85631676D01*
X115133848Y-85592971D01*
X115133848Y-84973695D02*
X114727448Y-84973695D01*
X115114495Y-84973695D02*
X115133848Y-85012399D01*
X115133848Y-85089809D01*
X115114495Y-85128514D01*
X115095143Y-85147866D01*
X115056438Y-85167218D01*
X114940324Y-85167218D01*
X114901619Y-85147866D01*
X114882267Y-85128514D01*
X114862914Y-85089809D01*
X114862914Y-85012399D01*
X114882267Y-84973695D01*
X115133848Y-84780171D02*
X114862914Y-84780171D01*
X114940324Y-84780171D02*
X114901619Y-84760819D01*
X114882267Y-84741466D01*
X114862914Y-84702762D01*
X114862914Y-84664057D01*
X115133848Y-84528590D02*
X114862914Y-84528590D01*
X114727448Y-84528590D02*
X114746800Y-84547942D01*
X114766152Y-84528590D01*
X114746800Y-84509238D01*
X114727448Y-84528590D01*
X114766152Y-84528590D01*
X115133848Y-84277009D02*
X115114495Y-84315714D01*
X115075790Y-84335066D01*
X114727448Y-84335066D01*
X115133848Y-84064133D02*
X115114495Y-84102838D01*
X115075790Y-84122190D01*
X114727448Y-84122190D01*
X115114495Y-83928666D02*
X115133848Y-83889962D01*
X115133848Y-83812552D01*
X115114495Y-83773847D01*
X115075790Y-83754495D01*
X115056438Y-83754495D01*
X115017733Y-83773847D01*
X114998381Y-83812552D01*
X114998381Y-83870609D01*
X114979029Y-83909314D01*
X114940324Y-83928666D01*
X114920971Y-83928666D01*
X114882267Y-83909314D01*
X114862914Y-83870609D01*
X114862914Y-83812552D01*
X114882267Y-83773847D01*
X114862914Y-83309391D02*
X115133848Y-83231981D01*
X114940324Y-83154572D01*
X115133848Y-83077162D01*
X114862914Y-82999753D01*
X115133848Y-82844934D02*
X114862914Y-82844934D01*
X114727448Y-82844934D02*
X114746800Y-82864286D01*
X114766152Y-82844934D01*
X114746800Y-82825582D01*
X114727448Y-82844934D01*
X114766152Y-82844934D01*
X114862914Y-82709467D02*
X114862914Y-82554648D01*
X114727448Y-82651410D02*
X115075790Y-82651410D01*
X115114495Y-82632058D01*
X115133848Y-82593353D01*
X115133848Y-82554648D01*
X115133848Y-82419181D02*
X114727448Y-82419181D01*
X115133848Y-82245010D02*
X114920971Y-82245010D01*
X114882267Y-82264362D01*
X114862914Y-82303067D01*
X114862914Y-82361124D01*
X114882267Y-82399829D01*
X114901619Y-82419181D01*
X115114495Y-81567677D02*
X115133848Y-81606381D01*
X115133848Y-81683791D01*
X115114495Y-81722496D01*
X115095143Y-81741848D01*
X115056438Y-81761200D01*
X114940324Y-81761200D01*
X114901619Y-81741848D01*
X114882267Y-81722496D01*
X114862914Y-81683791D01*
X114862914Y-81606381D01*
X114882267Y-81567677D01*
X115133848Y-81335448D02*
X115114495Y-81374153D01*
X115095143Y-81393505D01*
X115056438Y-81412857D01*
X114940324Y-81412857D01*
X114901619Y-81393505D01*
X114882267Y-81374153D01*
X114862914Y-81335448D01*
X114862914Y-81277391D01*
X114882267Y-81238686D01*
X114901619Y-81219334D01*
X114940324Y-81199981D01*
X115056438Y-81199981D01*
X115095143Y-81219334D01*
X115114495Y-81238686D01*
X115133848Y-81277391D01*
X115133848Y-81335448D01*
X114862914Y-81025810D02*
X115269314Y-81025810D01*
X114882267Y-81025810D02*
X114862914Y-80987105D01*
X114862914Y-80909696D01*
X114882267Y-80870991D01*
X114901619Y-80851639D01*
X114940324Y-80832286D01*
X115056438Y-80832286D01*
X115095143Y-80851639D01*
X115114495Y-80870991D01*
X115133848Y-80909696D01*
X115133848Y-80987105D01*
X115114495Y-81025810D01*
X114862914Y-80658115D02*
X115269314Y-80658115D01*
X114882267Y-80658115D02*
X114862914Y-80619410D01*
X114862914Y-80542001D01*
X114882267Y-80503296D01*
X114901619Y-80483944D01*
X114940324Y-80464591D01*
X115056438Y-80464591D01*
X115095143Y-80483944D01*
X115114495Y-80503296D01*
X115133848Y-80542001D01*
X115133848Y-80619410D01*
X115114495Y-80658115D01*
X115114495Y-80135601D02*
X115133848Y-80174306D01*
X115133848Y-80251715D01*
X115114495Y-80290420D01*
X115075790Y-80309772D01*
X114920971Y-80309772D01*
X114882267Y-80290420D01*
X114862914Y-80251715D01*
X114862914Y-80174306D01*
X114882267Y-80135601D01*
X114920971Y-80116249D01*
X114959676Y-80116249D01*
X114998381Y-80309772D01*
X115133848Y-79942077D02*
X114862914Y-79942077D01*
X114940324Y-79942077D02*
X114901619Y-79922725D01*
X114882267Y-79903372D01*
X114862914Y-79864668D01*
X114862914Y-79825963D01*
D20*
X121968667Y-49436500D02*
X122095667Y-49478833D01*
X122138000Y-49521167D01*
X122180334Y-49605833D01*
X122180334Y-49732833D01*
X122138000Y-49817500D01*
X122095667Y-49859833D01*
X122011000Y-49902167D01*
X121672334Y-49902167D01*
X121672334Y-49013167D01*
X121968667Y-49013167D01*
X122053334Y-49055500D01*
X122095667Y-49097833D01*
X122138000Y-49182500D01*
X122138000Y-49267167D01*
X122095667Y-49351833D01*
X122053334Y-49394167D01*
X121968667Y-49436500D01*
X121672334Y-49436500D01*
X122561334Y-49013167D02*
X122561334Y-49732833D01*
X122603667Y-49817500D01*
X122646000Y-49859833D01*
X122730667Y-49902167D01*
X122900000Y-49902167D01*
X122984667Y-49859833D01*
X123027000Y-49817500D01*
X123069334Y-49732833D01*
X123069334Y-49013167D01*
X123408000Y-49013167D02*
X124000667Y-49013167D01*
X123408000Y-49902167D01*
X124000667Y-49902167D01*
X124805000Y-49902167D02*
X124297000Y-49902167D01*
X124551000Y-49902167D02*
X124551000Y-49013167D01*
X124466334Y-49140167D01*
X124381667Y-49224833D01*
X124297000Y-49267167D01*
X122038000Y-62860667D02*
X121741666Y-62437333D01*
X121530000Y-62860667D02*
X121530000Y-61971667D01*
X121868666Y-61971667D01*
X121953333Y-62014000D01*
X121995666Y-62056333D01*
X122038000Y-62141000D01*
X122038000Y-62268000D01*
X121995666Y-62352667D01*
X121953333Y-62395000D01*
X121868666Y-62437333D01*
X121530000Y-62437333D01*
X122884666Y-62860667D02*
X122376666Y-62860667D01*
X122630666Y-62860667D02*
X122630666Y-61971667D01*
X122546000Y-62098667D01*
X122461333Y-62183333D01*
X122376666Y-62225667D01*
X123223333Y-62056333D02*
X123265667Y-62014000D01*
X123350333Y-61971667D01*
X123562000Y-61971667D01*
X123646667Y-62014000D01*
X123689000Y-62056333D01*
X123731333Y-62141000D01*
X123731333Y-62225667D01*
X123689000Y-62352667D01*
X123181000Y-62860667D01*
X123731333Y-62860667D01*
D14*
X155491534Y-90853886D02*
X155452829Y-90892590D01*
X155336715Y-90931295D01*
X155259305Y-90931295D01*
X155143191Y-90892590D01*
X155065782Y-90815181D01*
X155027077Y-90737771D01*
X154988372Y-90582952D01*
X154988372Y-90466838D01*
X155027077Y-90312019D01*
X155065782Y-90234610D01*
X155143191Y-90157200D01*
X155259305Y-90118495D01*
X155336715Y-90118495D01*
X155452829Y-90157200D01*
X155491534Y-90195905D01*
X155762467Y-90118495D02*
X156265629Y-90118495D01*
X155994696Y-90428133D01*
X156110810Y-90428133D01*
X156188220Y-90466838D01*
X156226924Y-90505543D01*
X156265629Y-90582952D01*
X156265629Y-90776476D01*
X156226924Y-90853886D01*
X156188220Y-90892590D01*
X156110810Y-90931295D01*
X155878582Y-90931295D01*
X155801172Y-90892590D01*
X155762467Y-90853886D01*
D23*
X154595942Y-93283848D02*
X154363714Y-93283848D01*
X154479828Y-93283848D02*
X154479828Y-92877448D01*
X154441123Y-92935505D01*
X154402418Y-92974210D01*
X154363714Y-92993562D01*
X154750762Y-92916152D02*
X154770114Y-92896800D01*
X154808819Y-92877448D01*
X154905581Y-92877448D01*
X154944285Y-92896800D01*
X154963638Y-92916152D01*
X154982990Y-92954857D01*
X154982990Y-92993562D01*
X154963638Y-93051619D01*
X154731409Y-93283848D01*
X154982990Y-93283848D01*
X155157162Y-93129029D02*
X155466800Y-93129029D01*
X155640972Y-92916152D02*
X155660324Y-92896800D01*
X155699029Y-92877448D01*
X155795791Y-92877448D01*
X155834495Y-92896800D01*
X155853848Y-92916152D01*
X155873200Y-92954857D01*
X155873200Y-92993562D01*
X155853848Y-93051619D01*
X155621619Y-93283848D01*
X155873200Y-93283848D01*
X156028020Y-92916152D02*
X156047372Y-92896800D01*
X156086077Y-92877448D01*
X156182839Y-92877448D01*
X156221543Y-92896800D01*
X156240896Y-92916152D01*
X156260248Y-92954857D01*
X156260248Y-92993562D01*
X156240896Y-93051619D01*
X156008667Y-93283848D01*
X156260248Y-93283848D01*
X156434420Y-93012914D02*
X156434420Y-93419314D01*
X156434420Y-93032267D02*
X156473125Y-93012914D01*
X156550534Y-93012914D01*
X156589239Y-93032267D01*
X156608591Y-93051619D01*
X156627944Y-93090324D01*
X156627944Y-93206438D01*
X156608591Y-93245143D01*
X156589239Y-93264495D01*
X156550534Y-93283848D01*
X156473125Y-93283848D01*
X156434420Y-93264495D01*
X156937582Y-93070971D02*
X156802115Y-93070971D01*
X156802115Y-93283848D02*
X156802115Y-92877448D01*
X156995639Y-92877448D01*
D14*
X155491534Y-83973886D02*
X155452829Y-84012590D01*
X155336715Y-84051295D01*
X155259305Y-84051295D01*
X155143191Y-84012590D01*
X155065782Y-83935181D01*
X155027077Y-83857771D01*
X154988372Y-83702952D01*
X154988372Y-83586838D01*
X155027077Y-83432019D01*
X155065782Y-83354610D01*
X155143191Y-83277200D01*
X155259305Y-83238495D01*
X155336715Y-83238495D01*
X155452829Y-83277200D01*
X155491534Y-83315905D01*
X156188220Y-83509429D02*
X156188220Y-84051295D01*
X155994696Y-83199790D02*
X155801172Y-83780362D01*
X156304334Y-83780362D01*
D23*
X153994142Y-86991648D02*
X153761914Y-86991648D01*
X153878028Y-86991648D02*
X153878028Y-86585248D01*
X153839323Y-86643305D01*
X153800618Y-86682010D01*
X153761914Y-86701362D01*
X154148962Y-86623952D02*
X154168314Y-86604600D01*
X154207019Y-86585248D01*
X154303781Y-86585248D01*
X154342485Y-86604600D01*
X154361838Y-86623952D01*
X154381190Y-86662657D01*
X154381190Y-86701362D01*
X154361838Y-86759419D01*
X154129609Y-86991648D01*
X154381190Y-86991648D01*
X154555362Y-86836829D02*
X154865000Y-86836829D01*
X155039172Y-86623952D02*
X155058524Y-86604600D01*
X155097229Y-86585248D01*
X155193991Y-86585248D01*
X155232695Y-86604600D01*
X155252048Y-86623952D01*
X155271400Y-86662657D01*
X155271400Y-86701362D01*
X155252048Y-86759419D01*
X155019819Y-86991648D01*
X155271400Y-86991648D01*
X155426220Y-86623952D02*
X155445572Y-86604600D01*
X155484277Y-86585248D01*
X155581039Y-86585248D01*
X155619743Y-86604600D01*
X155639096Y-86623952D01*
X155658448Y-86662657D01*
X155658448Y-86701362D01*
X155639096Y-86759419D01*
X155406867Y-86991648D01*
X155658448Y-86991648D01*
X155832620Y-86720714D02*
X155832620Y-87127114D01*
X155832620Y-86740067D02*
X155871325Y-86720714D01*
X155948734Y-86720714D01*
X155987439Y-86740067D01*
X156006791Y-86759419D01*
X156026144Y-86798124D01*
X156026144Y-86914238D01*
X156006791Y-86952943D01*
X155987439Y-86972295D01*
X155948734Y-86991648D01*
X155871325Y-86991648D01*
X155832620Y-86972295D01*
X156335782Y-86778771D02*
X156200315Y-86778771D01*
X156200315Y-86991648D02*
X156200315Y-86585248D01*
X156393839Y-86585248D01*
D20*
X158107333Y-89895833D02*
X158530667Y-89895833D01*
X157641667Y-90192166D02*
X158107333Y-89895833D01*
X157641667Y-89599500D01*
X158530667Y-88837500D02*
X158530667Y-89345500D01*
X158530667Y-89091500D02*
X157641667Y-89091500D01*
X157768667Y-89176166D01*
X157853333Y-89260833D01*
X157895667Y-89345500D01*
X164245667Y-92245333D02*
X164203333Y-92330000D01*
X164161000Y-92372333D01*
X164076333Y-92414667D01*
X164034000Y-92414667D01*
X163949333Y-92372333D01*
X163907000Y-92330000D01*
X163864667Y-92245333D01*
X163864667Y-92076000D01*
X163907000Y-91991333D01*
X163949333Y-91949000D01*
X164034000Y-91906667D01*
X164076333Y-91906667D01*
X164161000Y-91949000D01*
X164203333Y-91991333D01*
X164245667Y-92076000D01*
X164245667Y-92245333D01*
X164288000Y-92330000D01*
X164330333Y-92372333D01*
X164415000Y-92414667D01*
X164584333Y-92414667D01*
X164669000Y-92372333D01*
X164711333Y-92330000D01*
X164753667Y-92245333D01*
X164753667Y-92076000D01*
X164711333Y-91991333D01*
X164669000Y-91949000D01*
X164584333Y-91906667D01*
X164415000Y-91906667D01*
X164330333Y-91949000D01*
X164288000Y-91991333D01*
X164245667Y-92076000D01*
X164415000Y-91525666D02*
X164415000Y-90848333D01*
X164753667Y-89959333D02*
X164753667Y-90467333D01*
X164753667Y-90213333D02*
X163864667Y-90213333D01*
X163991667Y-90297999D01*
X164076333Y-90382666D01*
X164118667Y-90467333D01*
X163864667Y-89197332D02*
X163864667Y-89366666D01*
X163907000Y-89451332D01*
X163949333Y-89493666D01*
X164076333Y-89578332D01*
X164245667Y-89620666D01*
X164584333Y-89620666D01*
X164669000Y-89578332D01*
X164711333Y-89535999D01*
X164753667Y-89451332D01*
X164753667Y-89281999D01*
X164711333Y-89197332D01*
X164669000Y-89154999D01*
X164584333Y-89112666D01*
X164372667Y-89112666D01*
X164288000Y-89154999D01*
X164245667Y-89197332D01*
X164203333Y-89281999D01*
X164203333Y-89451332D01*
X164245667Y-89535999D01*
X164288000Y-89578332D01*
X164372667Y-89620666D01*
X164753667Y-88054332D02*
X163864667Y-88054332D01*
X164499667Y-87757999D01*
X163864667Y-87461666D01*
X164753667Y-87461666D01*
X164753667Y-87038332D02*
X163864667Y-87038332D01*
X164288000Y-87038332D02*
X164288000Y-86530332D01*
X164753667Y-86530332D02*
X163864667Y-86530332D01*
X163864667Y-86191666D02*
X163864667Y-85598999D01*
X164753667Y-86191666D01*
X164753667Y-85598999D01*
M02*
